<?xml version="1.0" encoding="UTF-8"?>
<svg id="Layer_2" data-name="Layer 2" xmlns="http://www.w3.org/2000/svg" viewBox="0 0 5.08 14.74">
  <g id="Layer_5" data-name="Layer 5">
    <path d="M4.38,13.94c-1.52,1.67-4.34.52-4.38-1.7L.02,3.68c.1-.37.65-.38.7.02v8.5c.15,2.18,3.01,2.46,3.57.4.14-3.53.02-7.1.06-10.64-.12-1.68-2.36-1.62-2.46-.08v8.11c.2.66,1.06.65,1.26,0l.04-6.39c.17-.3.52-.28.67.03l.02,6.33c-.19,1.6-2.42,1.68-2.7.08V1.72c.35-2.37,3.7-2.28,3.89.16v10.36c-.04.64-.26,1.22-.69,1.7Z"/>
  </g>
</svg>