<?xml version="1.0" encoding="UTF-8"?>
<svg id="Layer_2" data-name="Layer 2" xmlns="http://www.w3.org/2000/svg" viewBox="0 0 532.62 26.39">
  <defs>
    <style>
      .cls-1 {
        fill: #eb7cab;
      }
    </style>
  </defs>
  <g id="Layer_5" data-name="Layer 5">
    <g>
      <path class="cls-1" d="M8.51,1.03c3.88,0,5.92,2.17,5.92,2.17l-2.23,5.4h-.19c-.62-4.81-2.91-6.57-4.84-6.57-1.58,0-2.98,1.21-2.98,2.88,0,4.4,10.51,5.12,10.51,11.94,0,3.63-2.45,6.73-7.5,6.73-4.15,0-6.39-2.51-6.39-2.51l1.55-6.39.19.03c.65,2.67,2.33,7.94,5.92,7.94,1.71,0,3.41-1.18,3.41-3.19C11.89,14.45,1.22,14.24,1.22,7.2,1.22,3.6,4.42,1.03,8.51,1.03M8.51.28C3.93.28.47,3.25.47,7.2c0,4.25,3.4,6.21,6.39,7.94,2.29,1.32,4.27,2.46,4.27,4.31,0,1.59-1.37,2.44-2.66,2.44-2.95,0-4.52-4.61-5.19-7.37l-.12-.48-.49-.08-.19-.03-.69-.11-.16.68L.09,20.88l-.09.38.26.29c.1.11,2.51,2.76,6.95,2.76,6.09,0,8.25-4.03,8.25-7.48,0-4.21-3.59-6.33-6.48-8.03-2.16-1.27-4.03-2.37-4.03-3.91,0-1.34,1.13-2.13,2.23-2.13,1.54,0,3.53,1.55,4.09,5.92l.08.65h1.35l.19-.46,2.23-5.4.19-.45-.33-.35c-.09-.1-2.32-2.41-6.47-2.41h0Z"/>
      <path class="cls-1" d="M25.37,1.03c4.53,0,8.9,3.5,8.9,10.85s-5.02,11.69-9.89,11.69c-4.43,0-8.59-3.47-8.59-11.07S20.57,1.03,25.37,1.03M27.11,22.11c1.92,0,3.38-1.86,3.38-6.11,0-7.97-4.31-13.49-7.57-13.49-1.92,0-3.35,1.92-3.35,6.39,0,7.94,4.28,13.21,7.53,13.21M25.37.28c-5.13,0-10.33,4.2-10.33,12.22,0,5.88,2.89,11.82,9.34,11.82,5.16,0,10.64-4.36,10.64-12.44,0-3.6-1.02-6.6-2.95-8.69-1.74-1.88-4.11-2.91-6.7-2.91h0ZM27.11,21.36c-2.77,0-6.78-4.85-6.78-12.46,0-3.58.95-5.64,2.6-5.64,2.71,0,6.82,5.08,6.82,12.74,0,3.41-.96,5.36-2.63,5.36h0Z"/>
      <path class="cls-1" d="M45.4,1.03c2.29,0,4.59,1.24,5.43,2.2l-1.52,6.2-.15-.03c-1.3-4.09-4.22-6.85-6.54-6.85-1.83,0-3.44,1.71-3.44,5.92,0,6.57,3.53,13.86,6.82,13.86,1.67,0,2.17-2.2,2.17-4.19,0-.96-.12-1.89-.28-2.48l.19-.06,3.54,2.05c-1.09,3.94-4.28,5.92-7.53,5.92-4.25,0-8.68-3.35-8.68-10.05,0-8.59,5.18-12.5,10.02-12.5M45.4.28c-5.18,0-10.77,4.14-10.77,13.25,0,7.09,4.74,10.8,9.43,10.8,3.93,0,7.17-2.54,8.26-6.47l.15-.56-.5-.29-3.54-2.05-.29-.17-.32.11-.19.06-.66.22.18.68c.12.47.25,1.31.25,2.29,0,.57-.07,3.44-1.42,3.44-3.01,0-6.07-7.63-6.07-13.11,0-3.24,1.01-5.17,2.69-5.17,1.87,0,4.57,2.37,5.83,6.33l.13.42.43.09.15.03.71.14.17-.7,1.52-6.2.09-.38-.26-.29c-1.05-1.21-3.58-2.46-5.99-2.46h0Z"/>
      <path class="cls-1" d="M59.13,1.49l.03.25c-1.43,1.02-1.83,3.75-1.83,10.11,0,5.15.03,10.02,1.83,11.1l-.03.25h-7.13l-.03-.25c1.77-1.15,1.86-5.49,1.86-9.58v-1.43c0-5.58-.31-9.18-1.86-10.2l.03-.25h7.13M59.79.74h-8.45l-.08.66-.03.25-.06.46.39.26c1.34.88,1.52,5.12,1.52,9.58v1.43c0,2.98,0,7.97-1.52,8.95l-.39.26.06.47.03.25.08.66h8.45l.08-.66.03-.25.06-.48-.42-.25c-1.47-.88-1.47-6.19-1.47-10.46,0-6.13.41-8.71,1.52-9.5l.36-.26-.06-.44-.03-.25-.08-.66h0Z"/>
      <path class="cls-1" d="M68.53,1.34c.68,3.66,1.55,6.67,2.7,10.54,2.05,7.04,3.44,10.76,4.77,11.07l-.03.25h-7.88l-.03-.25c1.18-1.18.78-3.41.22-6.08h-4.81c-.59,2.36-1.4,4.93.28,6.08l-.03.25h-4.43l-.03-.25c1.49-1.4,2.26-1.86,3.91-8.43,1.05-4.12,2.33-9.12,3.19-13.18h2.17M63.63,16.1l4.43-.06-2.29-8.31-2.14,8.37M69.15.59h-3.4l-.13.59c-.89,4.14-2.22,9.35-3.19,13.15-1.51,6.04-2.21,6.69-3.48,7.87l-.21.2-.28.26.05.38.03.25.08.66h5.76l.08-.66.03-.25.06-.45-.38-.26c-1.03-.71-.71-2.4-.12-4.71h3.61c.45,2.24.67,3.99-.14,4.8l-.26.26.05.36.03.25.08.66h9.2l.08-.66.03-.25.08-.67-.66-.15c-1.24-.29-3.49-8.01-4.22-10.55-1.19-4.02-2.02-6.91-2.68-10.47l-.11-.61h0ZM64.6,15.33l1.2-4.69,1.28,4.65-2.48.03h0Z"/>
      <path class="cls-1" d="M83.37,1.49l.03.25c-1.89,1.27-1.74,6.57-1.8,10.23,0,3.04.09,5.27.22,8.34.03,1.09.19,2.02,1.18,2.02.02,0,.03,0,.05,0,3.13,0,4.11-3.19,5.35-8.47l.19-.03c.03,2.7.28,6.98.81,9.36h-13.3l-.03-.25c1.86-1.43,1.86-5.43,1.86-10.98,0-4.15-.06-9.05-1.86-10.23l.03-.25h7.29M84.04.74h-8.61l-.08.66-.03.25-.06.46.39.26c1.52,1,1.52,6.6,1.52,9.6,0,5.13,0,9.18-1.57,10.38l-.34.26.05.43.03.25.08.66h14.9l-.2-.91c-.5-2.24-.76-6.35-.79-9.21v-.87s-.87.14-.87.14l-.19.03-.49.08-.11.49c-1.3,5.56-2.23,7.89-4.62,7.89-.21,0-.44,0-.47-1.29v-.19c-.13-3-.22-5.16-.22-8.12,0-.36.01-.74.01-1.14.03-3,.08-7.55,1.45-8.47l.38-.26-.06-.46-.03-.25-.08-.66h0Z"/>
      <path class="cls-1" d="M94.13,23.2l-.03-.25c1.49-1.4,2.26-1.86,3.91-8.43,1.05-4.12,2.33-9.12,3.19-13.18h2.17c.68,3.66,1.55,6.67,2.7,10.54,2.05,7.04,3.44,10.76,4.78,11.07l-.03.25h-7.88l-.03-.25c1.18-1.18.77-3.41.22-6.08h-4.81c-.59,2.36-1.4,4.93.28,6.08l-.03.25h-4.43ZM98.47,16.1l4.43-.06-2.29-8.31-2.14,8.37Z"/>
      <path class="cls-1" d="M112.36,22.95c1.77-1.21,1.86-5.36,1.86-10.48,0-3.13,0-7.41-.22-10.54-4.37,1.83-4.59,5.24-5.08,7.29l-.16.03c-.22-2.39-.62-5.36-1.27-7.75h17.12c-.65,2.39-1.08,5.36-1.27,7.75l-.16-.03c-.47-2.08-.74-5.46-5.05-7.29-.22,3.13-.22,7.41-.22,10.54,0,5.12.09,9.4,1.83,10.48l-.03.25h-7.32l-.03-.25Z"/>
      <path class="cls-1" d="M141.07,1.46c4.09,0,6.95,1.46,6.95,5.02,0,2.26-1.61,4.06-3.44,4.65,2.85.34,5.18,2.6,5.18,6.05,0,4.12-2.69,6.08-6.94,6.08-.03,0-.07,0-.1,0l-11.69-.06-.03-.25c1.92-.96,1.89-6.73,1.83-11.25-.06-4.53.03-8.53-1.83-9.92l.03-.28,10.05-.03M136.51,11.32c5.21-.43,7.69-1.58,7.69-4.46,0-3.06-1.66-4.47-7.09-4.47-.18,0-.35,0-.54,0l-.06,8.93M139.17,22.2c3.91,0,6.57-2.11,6.57-5.33,0-1.74-.46-4.15-3.26-4.96-.99.06-3.22.12-5.98.12l.09,8.37c.06.87.59,1.8,2.57,1.8M141.07.71h0l-10.05.03h-.67s-.07.67-.07.67l-.03.28-.05.43.34.26c1.43,1.08,1.48,4.63,1.52,8.39v.94c.06,3.18.15,9.8-1.4,10.57l-.48.24.07.53.03.25.08.65h.66s11.69.07,11.69.07h.1c4.89,0,7.69-2.49,7.69-6.83,0-2.88-1.54-5.24-3.93-6.28,1.34-1.06,2.19-2.69,2.19-4.42,0-3.72-2.73-5.77-7.7-5.77h0ZM137.26,10.5l.05-7.36c5.67.04,6.13,1.71,6.13,3.72,0,1.79-1.08,3.1-6.18,3.64h0ZM137.26,12.78c2.31,0,4.18-.06,5.14-.12,1.75.55,2.59,1.93,2.59,4.2,0,2.78-2.29,4.58-5.82,4.58-1.75,0-1.8-.77-1.83-1.1l-.08-7.57h0Z"/>
      <path class="cls-1" d="M156.78,1.46c5.12,0,8.4,1.54,8.4,6.45,0,4.22-2.91,6.98-7.57,7.01,1.15.84,1.98,3.5,4.16,3.5.04,0,.08,0,.12,0,1.3,0,2.13-.49,2.76-1.21l.15.06v5.77s-.62.53-2.02.53c-3.32,0-3.91-4.62-5.58-7.78-.37-.68-.9-.9-1.21-.96.03,4.22.47,7.22,1.83,8.12l-.06.25h-7.29l-.03-.25c2.11-1.3,1.86-7.44,1.86-10.82s-.06-9.43-1.86-10.39l.03-.25,6.14-.03c.05,0,.1,0,.15,0M156.72,14.01c2.83,0,4.37-2.91,4.37-6.04,0-3.84-1.49-5.64-5.05-5.64l-.03,9.71v1.92c.25.04.48.06.71.06M156.78.71h-.16s-6.14.03-6.14.03h-.66s-.08.66-.08.66l-.03.25-.06.51.46.24c.97.52,1.46,3.79,1.46,9.73,0,.31,0,.64,0,.98.02,2.88.05,8.24-1.51,9.2l-.41.25.06.48.03.25.08.66h8.53l.14-.57.06-.25.13-.51-.44-.29c-.82-.54-1.3-2.45-1.45-5.69.32.68.61,1.43.9,2.16,1.06,2.72,2.15,5.53,5.1,5.53,1.62,0,2.42-.63,2.5-.71l.26-.22v-6.62l-.47-.19-.15-.06-.49-.2-.35.4c-.58.66-1.26.95-2.2.95h-.1c-1.08,0-1.78-.97-2.46-1.91-.05-.07-.1-.14-.15-.21,4.15-.59,6.75-3.47,6.75-7.64,0-7.2-6.89-7.2-9.15-7.2h0ZM156.76,13.26v-1.23l.03-8.93c2.55.22,3.56,1.64,3.56,4.86,0,2.54-1.12,5.26-3.58,5.29h0Z"/>
      <path class="cls-1" d="M174.36,1.34c.68,3.66,1.55,6.67,2.7,10.54,2.05,7.04,3.44,10.76,4.77,11.07l-.03.25h-7.88l-.03-.25c1.18-1.18.78-3.41.22-6.08h-4.81c-.59,2.36-1.39,4.93.28,6.08l-.03.25h-4.43l-.03-.25c1.49-1.4,2.26-1.86,3.91-8.43,1.05-4.12,2.33-9.12,3.19-13.18h2.17M169.46,16.1l4.43-.06-2.29-8.31-2.14,8.37M174.98.59h-3.4l-.13.59c-.89,4.14-2.22,9.35-3.19,13.15-1.51,6.04-2.21,6.69-3.48,7.87l-.21.2-.28.26.05.38.03.25.08.66h5.76l.08-.66.03-.25.06-.45-.38-.26c-1.03-.71-.71-2.4-.12-4.71h3.61c.45,2.24.67,3.99-.14,4.8l-.26.26.05.36.03.25.08.66h9.2l.08-.66.03-.25.08-.67-.66-.15c-1.24-.29-3.49-8.01-4.22-10.55-1.19-4.02-2.02-6.91-2.68-10.47l-.11-.61h0ZM170.43,15.33l1.2-4.69,1.28,4.65-2.48.03h0Z"/>
      <path class="cls-1" d="M198.79,1.49l.03.25c-1.83,1.98-2.14,5.8-2.14,12.59v9.18h-.16l-11.84-17.12v5.43c0,6.45.4,9.33,2.14,11.13l-.03.25h-5.05l-.03-.25c1.8-1.83,2.11-4.68,2.11-11.16,0-6.11-.47-8.96-1.86-10.05l-.03-.25h3.22c1.02.09,2.01.5,3.04,2.02l7.63,11.19c0-6.79.12-10.88-2.17-12.96v-.25h5.15M199.45.74h-6.56v1.33l.25.22c1.77,1.61,1.92,4.8,1.93,9.97l-6.26-9.18c-1-1.48-2.11-2.21-3.59-2.34h-.03s-.03,0-.03,0h-4.07l.1.84.03.25.04.31.25.19c1.12.87,1.57,3.61,1.57,9.45,0,6.14-.26,8.98-1.89,10.64l-.25.26.05.36.03.25.08.66h6.38l.08-.66.03-.25.04-.35-.25-.26c-1.48-1.53-1.93-4.01-1.93-10.61v-3.02l10.48,15.14.22.32h1.3v-9.93c0-6.62.3-10.3,1.94-12.08l.24-.25-.04-.34-.03-.25-.08-.66h0Z"/>
      <path class="cls-1" d="M206.27,1.46c5.06,0,9.75,3.08,9.75,10.64s-4.73,11.13-9.76,11.13c-.02,0-.04,0-.07,0l-6.48-.03-.03-.25c1.74-1.12,1.83-5.12,1.83-10.82,0-5.27-.16-9.33-1.83-10.39l.03-.25,6.48-.03s.05,0,.08,0M206.63,22.3c4.28,0,4.96-4.84,4.96-10.2s-1.4-9.83-5.67-9.83h-.56c-.19,5.77-.16,11.32-.09,17.02.03,1.71.28,3.01,1.36,3.01M206.27.71h-.08s-6.48.03-6.48.03h-.66s-.08.66-.08.66l-.03.25-.06.47.4.25c1.48.93,1.48,6.24,1.48,9.75,0,4.54,0,9.24-1.48,10.19l-.4.26.06.47.03.25.08.65h.66s6.48.03,6.48.03h.07c5.23,0,10.51-3.67,10.51-11.88s-5.43-11.39-10.5-11.39h0ZM206.63,21.55c-.47,0-.6-1.23-.61-2.27-.06-5.11-.1-10.56.07-16.26,3.92.13,4.76,4.99,4.76,9.08,0,6.71-1.22,9.45-4.21,9.45h0Z"/>
      <path class="cls-1" d="M223.93,1.49l.03.25c-1.43,1.02-1.83,3.75-1.83,10.11,0,5.15.03,10.02,1.83,11.1l-.03.25h-7.13l-.03-.25c1.77-1.15,1.86-5.49,1.86-9.58v-1.43c0-5.58-.31-9.18-1.86-10.2l.03-.25h7.13M224.59.74h-8.45l-.08.66-.03.25-.06.46.39.26c1.34.88,1.52,5.12,1.52,9.58v1.43c0,2.98,0,7.97-1.52,8.95l-.39.26.06.47.03.25.08.66h8.45l.08-.66.03-.25.06-.48-.42-.25c-1.47-.89-1.47-6.19-1.47-10.46,0-6.13.41-8.71,1.52-9.5l.36-.26-.06-.44-.03-.25-.08-.66h0Z"/>
      <path class="cls-1" d="M242.09,1.49l.03.25c-1.83,1.98-2.14,5.8-2.14,12.59v9.18h-.16l-11.84-17.12v5.43c0,6.45.4,9.33,2.14,11.13l-.03.25h-5.05l-.03-.25c1.8-1.83,2.11-4.68,2.11-11.16,0-6.11-.47-8.96-1.86-10.05l-.03-.25h3.22c1.02.09,2.01.5,3.04,2.02l7.63,11.19c0-6.79.12-10.88-2.17-12.96v-.25h5.15M242.76.74h-6.56v1.33l.25.22c1.77,1.61,1.92,4.8,1.93,9.97l-6.26-9.18c-1-1.48-2.11-2.21-3.59-2.34h-.03s-.03,0-.03,0h-4.07l.1.84.03.25.04.31.25.19c1.12.87,1.57,3.61,1.57,9.45,0,6.14-.26,8.98-1.89,10.64l-.25.26.05.36.03.25.08.66h6.38l.08-.66.03-.25.04-.35-.25-.26c-1.48-1.53-1.93-4.01-1.93-10.61v-3.02l10.48,15.14.22.32h1.3v-9.93c0-6.62.3-10.3,1.94-12.08l.24-.25-.04-.34-.03-.25-.08-.66h0Z"/>
      <path class="cls-1" d="M252.51,1.03c2.29,0,4.28.96,5.12,1.92l-.59,5.49-.16-.03c-1.52-3.22-4.56-5.83-6.98-5.83-1.95,0-3.63,1.58-3.63,5.67,0,7.38,4.22,13.39,6.91,13.39,1.24,0,2.14-1.24,2.14-4.19,0-2.17-.74-4.84-2.45-5.36l.03-.25,5.89-.03.03.06s-.62,1.02-.62,3.5v3.26c0,2.98.37,4.37.37,4.37h-.09s-1.3-.81-2.23-2.42c-1.49,2.08-3.41,2.98-5.4,2.98-4.12,0-8.37-4.06-8.37-10.23,0-8.59,5.18-12.31,10.02-12.31M252.51.28c-2.81,0-5.43,1.13-7.37,3.17-2.22,2.35-3.4,5.77-3.4,9.89,0,6.78,4.74,10.98,9.12,10.98,2.06,0,3.89-.85,5.34-2.46.9,1.17,1.84,1.76,1.89,1.79l.18.11h1.28l-.25-.94s-.35-1.37-.35-4.18v-3.26c0-.9.09-2.17.53-3.13.12-.27.12-.52,0-.74l-.02-.03-.21-.41h-.46s-5.89.03-5.89.03h-.66s-.08.66-.08.66l-.03.25-.08.62.6.19c1.25.39,1.92,2.68,1.92,4.65,0,2.15-.52,3.44-1.39,3.44-2.06,0-6.16-5.47-6.16-12.64,0-3.13,1.05-4.92,2.88-4.92,2.07,0,4.9,2.42,6.3,5.4l.16.34.37.07.16.03.81.16.09-.82.59-5.49.03-.33-.22-.25c-.91-1.05-3.08-2.18-5.68-2.18h0Z"/>
      <path class="cls-1" d="M261.28,19.94c1.18,0,1.8.81,1.8,1.92-.06,1.74-1.58,3.29-3.57,3.72l-.4-.31c.68-.4,1.24-1.27,1.24-1.95-.53-.31-.84-.87-.84-1.58,0-1.02.71-1.8,1.77-1.8M261.28,19.19c-1.43,0-2.52,1.1-2.52,2.55,0,.76.28,1.43.77,1.9-.13.35-.43.77-.81.99l-.95.56.88.68.4.31.28.21.34-.07c2.33-.51,4.08-2.37,4.15-4.43,0-1.63-1.02-2.7-2.55-2.7h0Z"/>
      <path class="cls-1" d="M277.31.75c3.88,0,5.92,2.17,5.92,2.17l-2.23,5.4h-.19c-.62-4.81-2.91-6.57-4.84-6.57-1.58,0-2.98,1.21-2.98,2.88,0,4.4,10.51,5.12,10.51,11.94,0,3.63-2.45,6.73-7.5,6.73-4.15,0-6.39-2.51-6.39-2.51l1.55-6.39.19.03c.65,2.67,2.33,7.94,5.92,7.94,1.71,0,3.41-1.18,3.41-3.19,0-4.99-10.67-5.21-10.67-12.25,0-3.6,3.19-6.17,7.29-6.17M277.31,0c-4.58,0-8.04,2.97-8.04,6.92,0,4.25,3.4,6.21,6.39,7.94,2.29,1.32,4.27,2.46,4.27,4.31,0,1.59-1.37,2.44-2.66,2.44-2.95,0-4.52-4.61-5.19-7.37l-.12-.48-.49-.08-.19-.03-.69-.11-.16.68-1.55,6.39-.09.38.26.29c.1.11,2.51,2.76,6.95,2.76,6.09,0,8.25-4.03,8.25-7.48,0-4.21-3.59-6.33-6.48-8.03-2.16-1.27-4.03-2.37-4.03-3.91,0-1.34,1.13-2.13,2.23-2.13,1.54,0,3.53,1.55,4.09,5.92l.08.65h1.35l.19-.46,2.23-5.4.19-.45-.33-.35c-.09-.1-2.32-2.41-6.47-2.41h0Z"/>
      <path class="cls-1" d="M294.17.75c4.53,0,8.9,3.5,8.9,10.85s-5.02,11.69-9.89,11.69c-4.43,0-8.59-3.47-8.59-11.07s4.77-11.47,9.58-11.47M295.91,21.83c1.92,0,3.38-1.86,3.38-6.11,0-7.97-4.31-13.49-7.57-13.49-1.92,0-3.35,1.92-3.35,6.39,0,7.94,4.28,13.21,7.53,13.21M294.17,0c-5.13,0-10.33,4.2-10.33,12.22,0,5.88,2.89,11.82,9.34,11.82,5.16,0,10.64-4.36,10.64-12.44,0-3.6-1.02-6.6-2.95-8.69-1.74-1.88-4.11-2.91-6.7-2.91h0ZM295.91,21.08c-2.77,0-6.78-4.85-6.78-12.46,0-3.58.95-5.64,2.6-5.64,2.71,0,6.82,5.08,6.82,12.74,0,3.41-.96,5.36-2.63,5.36h0Z"/>
      <path class="cls-1" d="M314.2.75c2.29,0,4.59,1.24,5.43,2.2l-1.52,6.2-.15-.03c-1.3-4.09-4.22-6.85-6.54-6.85-1.83,0-3.44,1.71-3.44,5.92,0,6.57,3.53,13.86,6.82,13.86,1.67,0,2.17-2.2,2.17-4.19,0-.96-.12-1.89-.28-2.48l.19-.06,3.54,2.05c-1.09,3.94-4.28,5.92-7.53,5.92-4.25,0-8.68-3.35-8.68-10.05,0-8.59,5.18-12.5,10.02-12.5M314.2,0c-5.18,0-10.77,4.14-10.77,13.25,0,7.09,4.74,10.8,9.43,10.8,3.93,0,7.17-2.54,8.26-6.47l.15-.56-.5-.29-3.54-2.05-.29-.17-.32.11-.19.06-.66.22.18.68c.12.47.25,1.31.25,2.29,0,.57-.07,3.44-1.42,3.44-3.01,0-6.07-7.63-6.07-13.11,0-3.24,1.01-5.17,2.69-5.17,1.87,0,4.57,2.37,5.83,6.33l.13.42.43.09.15.03.71.14.17-.7,1.52-6.2.09-.38-.26-.29c-1.05-1.21-3.58-2.46-5.99-2.46h0Z"/>
      <path class="cls-1" d="M327.93,1.21l.03.25c-1.43,1.02-1.83,3.75-1.83,10.11,0,5.15.03,10.02,1.83,11.1l-.03.25h-7.13l-.03-.25c1.77-1.15,1.86-5.49,1.86-9.58v-1.43c0-5.58-.31-9.18-1.86-10.2l.03-.25h7.13M328.59.46h-8.45l-.08.66-.03.25-.06.46.39.26c1.34.88,1.52,5.12,1.52,9.58v1.43c0,2.98,0,7.97-1.52,8.95l-.39.26.06.47.03.25.08.66h8.45l.08-.66.03-.25.06-.48-.42-.25c-1.47-.88-1.47-6.19-1.47-10.46,0-6.13.41-8.71,1.52-9.5l.36-.26-.06-.44-.03-.25-.08-.66h0Z"/>
      <path class="cls-1" d="M337.32,1.06c.68,3.66,1.55,6.67,2.7,10.54,2.05,7.04,3.44,10.76,4.77,11.07l-.03.25h-7.88l-.03-.25c1.18-1.18.78-3.41.22-6.08h-4.81c-.59,2.36-1.4,4.93.28,6.08l-.03.25h-4.43l-.03-.25c1.49-1.4,2.26-1.86,3.91-8.43,1.05-4.12,2.33-9.12,3.19-13.18h2.17M332.42,15.82l4.43-.06-2.29-8.31-2.14,8.37M337.95.31h-3.4l-.13.59c-.89,4.14-2.22,9.35-3.19,13.15-1.51,6.04-2.21,6.69-3.48,7.87l-.21.2-.28.26.05.38.03.25.08.66h5.76l.08-.66.03-.25.06-.45-.38-.26c-1.03-.71-.71-2.4-.12-4.71h3.61c.45,2.24.67,3.99-.14,4.8l-.26.26.05.36.03.25.08.66h9.2l.08-.66.03-.25.08-.67-.66-.15c-1.24-.29-3.49-8.01-4.22-10.55-1.19-4.02-2.02-6.91-2.68-10.47l-.11-.61h0ZM333.39,15.05l1.2-4.69,1.28,4.65-2.48.03h0Z"/>
      <path class="cls-1" d="M352.17,1.21l.03.25c-1.89,1.27-1.74,6.57-1.8,10.23,0,3.04.09,5.27.22,8.34.03,1.09.19,2.02,1.18,2.02.02,0,.03,0,.05,0,3.13,0,4.11-3.19,5.35-8.47l.19-.03c.03,2.7.28,6.98.81,9.36h-13.3l-.03-.25c1.86-1.43,1.86-5.43,1.86-10.98,0-4.15-.06-9.05-1.86-10.23l.03-.25h7.29M352.83.46h-8.61l-.08.66-.03.25-.06.46.39.26c1.52,1,1.52,6.6,1.52,9.6,0,5.13,0,9.18-1.57,10.38l-.34.26.05.43.03.25.08.66h14.9l-.2-.91c-.5-2.24-.76-6.35-.79-9.21v-.87s-.87.14-.87.14l-.19.03-.49.08-.11.49c-1.3,5.56-2.23,7.89-4.62,7.89-.21,0-.44,0-.47-1.29v-.19c-.13-3-.22-5.16-.22-8.12,0-.36.01-.74.01-1.14.03-3,.08-7.55,1.45-8.47l.38-.26-.06-.46-.03-.25-.08-.66h0Z"/>
      <path class="cls-1" d="M362.93,22.92l-.03-.25c1.49-1.4,2.26-1.86,3.91-8.43,1.05-4.12,2.33-9.12,3.19-13.18h2.17c.68,3.66,1.55,6.67,2.7,10.54,2.05,7.04,3.44,10.76,4.78,11.07l-.03.25h-7.88l-.03-.25c1.18-1.18.77-3.41.22-6.08h-4.81c-.59,2.36-1.4,4.93.28,6.08l-.03.25h-4.43ZM367.27,15.82l4.43-.06-2.29-8.31-2.14,8.37Z"/>
      <path class="cls-1" d="M381.15,22.67c1.77-1.21,1.86-5.36,1.86-10.48,0-3.13,0-7.41-.22-10.54-4.37,1.83-4.59,5.24-5.08,7.29l-.16.03c-.22-2.39-.62-5.36-1.27-7.75h17.12c-.65,2.39-1.08,5.36-1.27,7.75l-.16-.03c-.47-2.08-.74-5.46-5.05-7.29-.22,3.13-.22,7.41-.22,10.54,0,5.12.09,9.4,1.83,10.48l-.03.25h-7.32l-.03-.25Z"/>
      <path class="cls-1" d="M409.86,1.18c4.09,0,6.95,1.46,6.95,5.02,0,2.26-1.61,4.06-3.44,4.65,2.85.34,5.18,2.6,5.18,6.05,0,4.12-2.69,6.08-6.94,6.08-.03,0-.07,0-.1,0l-11.69-.06-.03-.25c1.92-.96,1.89-6.73,1.83-11.25-.06-4.53.03-8.53-1.83-9.92l.03-.28,10.05-.03M405.3,11.04c5.21-.43,7.69-1.58,7.69-4.46,0-3.06-1.66-4.47-7.09-4.47-.18,0-.35,0-.54,0l-.06,8.93M407.97,21.93c3.91,0,6.57-2.11,6.57-5.33,0-1.74-.46-4.15-3.26-4.96-.99.06-3.22.12-5.98.12l.09,8.37c.06.87.59,1.8,2.57,1.8M409.86.43h0l-10.05.03h-.67s-.07.67-.07.67l-.03.28-.05.43.34.26c1.44,1.08,1.48,4.63,1.52,8.39v.94c.06,3.18.15,9.8-1.4,10.57l-.48.24.07.53.03.25.08.65h.66s11.69.07,11.69.07h.1c4.89,0,7.69-2.49,7.69-6.83,0-2.88-1.54-5.24-3.93-6.28,1.34-1.06,2.19-2.69,2.19-4.42,0-3.72-2.73-5.77-7.7-5.77h0ZM406.06,10.22l.05-7.36c5.67.04,6.13,1.71,6.13,3.72,0,1.79-1.08,3.1-6.18,3.64h0ZM406.06,12.51c2.31,0,4.18-.06,5.14-.12,1.75.55,2.59,1.93,2.59,4.2,0,2.78-2.29,4.58-5.82,4.58-1.75,0-1.8-.77-1.83-1.1l-.08-7.57h0Z"/>
      <path class="cls-1" d="M425.58,1.18c5.12,0,8.4,1.54,8.4,6.45,0,4.22-2.91,6.98-7.57,7.01,1.15.84,1.98,3.5,4.16,3.5.04,0,.08,0,.12,0,1.3,0,2.13-.49,2.76-1.21l.15.06v5.77s-.62.53-2.02.53c-3.32,0-3.91-4.62-5.58-7.78-.37-.68-.9-.9-1.21-.96.03,4.22.47,7.22,1.83,8.12l-.06.25h-7.29l-.03-.25c2.11-1.3,1.86-7.44,1.86-10.82s-.06-9.43-1.86-10.39l.03-.25,6.14-.03c.05,0,.1,0,.15,0M425.51,13.74c2.83,0,4.37-2.91,4.37-6.04,0-3.84-1.49-5.64-5.05-5.64l-.03,9.71v1.92c.25.04.48.06.71.06M425.58.43h-.16s-6.14.03-6.14.03h-.66s-.08.66-.08.66l-.03.25-.06.51.46.24c.97.52,1.46,3.79,1.46,9.73,0,.31,0,.64,0,.98.02,2.88.05,8.24-1.51,9.2l-.41.25.06.48.03.25.08.66h8.53l.14-.57.06-.25.13-.51-.44-.29c-.82-.54-1.3-2.45-1.45-5.69.32.68.61,1.43.9,2.16,1.06,2.72,2.15,5.53,5.1,5.53,1.62,0,2.42-.63,2.5-.71l.26-.22v-6.62l-.47-.19-.15-.06-.49-.2-.35.4c-.58.66-1.26.95-2.2.95h-.1c-1.08,0-1.78-.97-2.46-1.91-.05-.07-.1-.14-.15-.21,4.15-.59,6.75-3.47,6.75-7.64,0-7.2-6.89-7.2-9.15-7.2h0ZM425.55,12.99v-1.23l.03-8.93c2.55.22,3.56,1.64,3.56,4.86,0,2.54-1.12,5.26-3.58,5.29h0Z"/>
      <path class="cls-1" d="M443.15,1.06c.68,3.66,1.55,6.67,2.7,10.54,2.05,7.04,3.44,10.76,4.77,11.07l-.03.25h-7.88l-.03-.25c1.18-1.18.78-3.41.22-6.08h-4.81c-.59,2.36-1.39,4.93.28,6.08l-.03.25h-4.43l-.03-.25c1.49-1.4,2.26-1.86,3.91-8.43,1.05-4.12,2.33-9.12,3.19-13.18h2.17M438.26,15.82l4.43-.06-2.29-8.31-2.14,8.37M443.78.31h-3.4l-.13.59c-.89,4.14-2.22,9.35-3.19,13.15-1.51,6.04-2.21,6.69-3.48,7.87l-.21.2-.28.26.05.38.03.25.08.66h5.76l.08-.66.03-.25.06-.45-.38-.26c-1.03-.71-.71-2.4-.12-4.71h3.61c.45,2.24.67,3.99-.14,4.8l-.26.26.05.36.03.25.08.66h9.2l.08-.66.03-.25.08-.67-.66-.15c-1.24-.29-3.49-8.01-4.22-10.55-1.19-4.02-2.02-6.91-2.68-10.47l-.11-.61h0ZM439.22,15.05l1.2-4.69,1.28,4.65-2.48.03h0Z"/>
      <path class="cls-1" d="M467.58,1.21l.03.25c-1.83,1.98-2.14,5.8-2.14,12.59v9.18h-.16l-11.84-17.12v5.43c0,6.45.4,9.33,2.14,11.13l-.03.25h-5.05l-.03-.25c1.8-1.83,2.11-4.68,2.11-11.16,0-6.11-.47-8.96-1.86-10.05l-.03-.25h3.22c1.02.09,2.01.5,3.04,2.02l7.63,11.19c0-6.79.12-10.88-2.17-12.96v-.25h5.15M468.25.46h-6.56v1.33l.25.22c1.77,1.61,1.92,4.8,1.93,9.97l-6.26-9.18c-1-1.48-2.11-2.21-3.59-2.34h-.03s-.03,0-.03,0h-4.07l.1.84.03.25.04.31.25.19c1.12.87,1.57,3.61,1.57,9.45,0,6.14-.26,8.98-1.89,10.64l-.25.26.05.36.03.25.08.66h6.38l.08-.66.03-.25.04-.35-.25-.26c-1.48-1.53-1.93-4.01-1.93-10.61v-3.02l10.48,15.14.22.32h1.3v-9.93c0-6.62.3-10.3,1.94-12.08l.24-.25-.04-.34-.03-.25-.08-.66h0Z"/>
      <path class="cls-1" d="M475.07,1.18c5.06,0,9.75,3.08,9.75,10.64s-4.73,11.13-9.76,11.13c-.02,0-.04,0-.07,0l-6.48-.03-.03-.25c1.74-1.12,1.83-5.12,1.83-10.82,0-5.27-.16-9.33-1.83-10.39l.03-.25,6.48-.03s.05,0,.08,0M475.42,22.02c4.28,0,4.96-4.84,4.96-10.2s-1.4-9.83-5.67-9.83h-.56c-.19,5.77-.16,11.32-.09,17.02.03,1.71.28,3.01,1.36,3.01M475.07.43h-.08s-6.48.03-6.48.03h-.66s-.08.66-.08.66l-.03.25-.06.47.4.25c1.48.93,1.48,6.24,1.48,9.75,0,4.54,0,9.24-1.48,10.19l-.4.26.06.47.03.25.08.65h.66s6.48.03,6.48.03h.07c5.23,0,10.51-3.67,10.51-11.88s-5.43-11.39-10.5-11.39h0ZM475.42,21.27c-.47,0-.6-1.23-.61-2.27-.06-5.11-.1-10.56.07-16.26,3.92.13,4.76,4.99,4.76,9.08,0,6.71-1.22,9.45-4.21,9.45h0Z"/>
      <path class="cls-1" d="M492.72,1.21l.03.25c-1.43,1.02-1.83,3.75-1.83,10.11,0,5.15.03,10.02,1.83,11.1l-.03.25h-7.13l-.03-.25c1.77-1.15,1.86-5.49,1.86-9.58v-1.43c0-5.58-.31-9.18-1.86-10.2l.03-.25h7.13M493.38.46h-8.45l-.08.66-.03.25-.06.46.39.26c1.34.88,1.52,5.12,1.52,9.58v1.43c0,2.98,0,7.97-1.52,8.95l-.39.26.06.47.03.25.08.66h8.45l.08-.66.03-.25.06-.48-.42-.25c-1.47-.89-1.47-6.19-1.47-10.46,0-6.13.41-8.71,1.52-9.5l.36-.26-.06-.44-.03-.25-.08-.66h0Z"/>
      <path class="cls-1" d="M510.89,1.21l.03.25c-1.83,1.98-2.14,5.8-2.14,12.59v9.18h-.16l-11.84-17.12v5.43c0,6.45.4,9.33,2.14,11.13l-.03.25h-5.05l-.03-.25c1.8-1.83,2.11-4.68,2.11-11.16,0-6.11-.47-8.96-1.86-10.05l-.03-.25h3.22c1.02.09,2.01.5,3.04,2.02l7.63,11.19c0-6.79.12-10.88-2.17-12.96v-.25h5.15M511.55.46h-6.56v1.33l.25.22c1.77,1.61,1.92,4.8,1.93,9.97l-6.26-9.18c-1-1.48-2.11-2.21-3.59-2.34h-.03s-.03,0-.03,0h-4.07l.1.84.03.25.04.31.25.19c1.12.87,1.57,3.61,1.57,9.45,0,6.14-.26,8.98-1.89,10.64l-.25.26.05.36.03.25.08.66h6.38l.08-.66.03-.25.04-.35-.25-.26c-1.48-1.53-1.93-4.01-1.93-10.61v-3.02l10.48,15.14.22.32h1.3v-9.93c0-6.62.3-10.3,1.94-12.08l.24-.25-.04-.34-.03-.25-.08-.66h0Z"/>
      <path class="cls-1" d="M521.3.75c2.29,0,4.28.96,5.12,1.92l-.59,5.49-.16-.03c-1.52-3.22-4.56-5.83-6.98-5.83-1.95,0-3.63,1.58-3.63,5.67,0,7.38,4.22,13.39,6.91,13.39,1.24,0,2.14-1.24,2.14-4.19,0-2.17-.74-4.84-2.45-5.36l.03-.25,5.89-.03.03.06s-.62,1.02-.62,3.5v3.26c0,2.98.37,4.37.37,4.37h-.09s-1.3-.81-2.23-2.42c-1.49,2.08-3.41,2.98-5.4,2.98-4.12,0-8.37-4.06-8.37-10.23,0-8.59,5.18-12.31,10.02-12.31M521.3,0c-2.81,0-5.43,1.13-7.37,3.17-2.22,2.35-3.4,5.77-3.4,9.89,0,6.78,4.74,10.98,9.12,10.98,2.06,0,3.89-.85,5.34-2.46.9,1.17,1.84,1.76,1.89,1.79l.18.11h1.28l-.25-.94s-.35-1.37-.35-4.18v-3.26c0-.9.09-2.17.53-3.13.12-.27.12-.52,0-.74l-.02-.03-.21-.41h-.46s-5.89.03-5.89.03h-.66s-.08.66-.08.66l-.03.25-.08.62.6.19c1.25.39,1.92,2.68,1.92,4.65,0,2.15-.52,3.44-1.39,3.44-2.06,0-6.16-5.47-6.16-12.64,0-3.13,1.05-4.92,2.88-4.92,2.07,0,4.9,2.42,6.3,5.4l.16.34.37.07.16.03.81.16.09-.82.59-5.49.03-.33-.22-.25c-.91-1.05-3.08-2.18-5.68-2.18h0Z"/>
      <path class="cls-1" d="M530.08,19.66c1.18,0,1.8.81,1.8,1.92-.06,1.74-1.58,3.29-3.57,3.72l-.4-.31c.68-.4,1.24-1.27,1.24-1.95-.53-.31-.84-.87-.84-1.58,0-1.02.71-1.8,1.77-1.8M530.08,18.91c-1.43,0-2.52,1.1-2.52,2.55,0,.76.28,1.43.77,1.9-.13.35-.43.77-.81.99l-.95.56.88.68.4.31.28.21.34-.07c2.33-.51,4.08-2.37,4.15-4.43,0-1.63-1.02-2.7-2.55-2.7h0Z"/>
    </g>
  </g>
</svg>