<?xml version="1.0" encoding="UTF-8"?>
<svg id="Layer_2" data-name="Layer 2" xmlns="http://www.w3.org/2000/svg" viewBox="0 0 654.01 26.38">
  <defs>
    <style>
      .cls-1 {
        fill: #eb7cab;
      }
    </style>
  </defs>
  <g id="Layer_5" data-name="Layer 5">
    <g>
      <path class="cls-1" d="M10.77.75c2.29,0,4.28.96,5.12,1.92l-.59,5.49-.15-.03c-1.52-3.22-4.56-5.83-6.98-5.83-1.95,0-3.63,1.58-3.63,5.67,0,7.38,4.22,13.39,6.91,13.39,1.24,0,2.14-1.24,2.14-4.19,0-2.17-.74-4.84-2.45-5.36l.03-.25,5.89-.03.03.06s-.62,1.02-.62,3.5v3.26c0,2.98.37,4.37.37,4.37h-.09s-1.3-.81-2.23-2.42c-1.49,2.08-3.41,2.98-5.4,2.98C5,23.29.75,19.23.75,13.06.75,4.47,5.93.75,10.77.75M10.77,0c-2.81,0-5.43,1.13-7.37,3.17C1.18,5.51,0,8.93,0,13.06c0,6.78,4.73,10.98,9.12,10.98,2.06,0,3.89-.85,5.34-2.46.9,1.17,1.84,1.76,1.89,1.79l.18.11h1.28l-.25-.94s-.35-1.37-.35-4.18v-3.26c0-.9.09-2.17.53-3.13.05-.1.19-.41,0-.74l-.02-.03-.21-.41h-.46s-5.89.03-5.89.03h-.66s-.08.66-.08.66l-.03.25-.08.62.6.19c1.25.39,1.92,2.68,1.92,4.65,0,2.15-.52,3.44-1.39,3.44-2.06,0-6.16-5.47-6.16-12.64,0-3.13,1.05-4.92,2.88-4.92,2.07,0,4.9,2.42,6.3,5.4l.16.34.37.07.15.03.81.16.09-.82.59-5.49.03-.33-.22-.25c-.91-1.05-3.08-2.18-5.68-2.18h0Z"/>
      <path class="cls-1" d="M24.4,1.18c5.12,0,8.4,1.54,8.4,6.45,0,4.22-2.91,6.98-7.57,7.01,1.15.84,1.98,3.5,4.16,3.5.04,0,.08,0,.12,0,1.3,0,2.13-.49,2.76-1.21l.15.06v5.77s-.62.53-2.02.53c-3.32,0-3.91-4.62-5.58-7.78-.37-.68-.9-.9-1.21-.96.03,4.22.47,7.22,1.83,8.12l-.06.25h-7.29l-.03-.25c2.11-1.3,1.86-7.44,1.86-10.82s-.06-9.43-1.86-10.39l.03-.25,6.14-.03c.05,0,.1,0,.15,0M24.34,13.74c2.83,0,4.37-2.91,4.37-6.04,0-3.84-1.49-5.64-5.05-5.64l-.03,9.71v1.92c.25.04.48.06.71.06M24.4.43h-.16s-6.14.03-6.14.03h-.66s-.08.66-.08.66l-.03.25-.06.51.46.24c.97.52,1.46,3.79,1.46,9.73,0,.31,0,.64,0,.98.02,2.88.05,8.24-1.51,9.2l-.41.25.06.48.03.25.08.66h8.53l.14-.57.06-.25.13-.52-.44-.29c-.82-.54-1.3-2.45-1.45-5.69.32.68.61,1.43.9,2.16,1.06,2.72,2.15,5.53,5.1,5.53,1.62,0,2.42-.63,2.5-.71l.26-.22v-6.62l-.47-.19-.15-.06-.49-.2-.35.4c-.58.66-1.26.95-2.2.95h-.1c-1.08,0-1.78-.97-2.46-1.91-.05-.07-.1-.14-.15-.21,4.15-.59,6.75-3.47,6.75-7.64C33.56.43,26.67.43,24.4.43h0ZM24.38,12.99v-1.23l.03-8.93c2.55.22,3.56,1.64,3.56,4.86,0,2.54-1.12,5.26-3.58,5.29h0Z"/>
      <path class="cls-1" d="M41.98,1.06c.68,3.66,1.55,6.67,2.7,10.54,2.05,7.04,3.44,10.76,4.78,11.07l-.03.25h-7.88l-.03-.25c1.18-1.18.77-3.41.22-6.08h-4.81c-.59,2.36-1.4,4.93.28,6.08l-.03.25h-4.43l-.03-.25c1.49-1.4,2.26-1.86,3.91-8.43,1.05-4.12,2.33-9.12,3.19-13.18h2.17M37.08,15.82l4.43-.06-2.29-8.31-2.14,8.37M42.6.31h-3.4l-.13.59c-.89,4.18-2.22,9.36-3.19,13.15-1.51,6.04-2.21,6.69-3.48,7.87l-.21.2-.28.26.05.38.03.25.08.66h5.76l.08-.66.03-.25.06-.45-.38-.26c-1.03-.71-.71-2.4-.12-4.71h3.61c.45,2.24.67,3.99-.14,4.8l-.26.26.05.36.03.25.08.66h9.2l.08-.66.03-.25.08-.67-.66-.15c-1.24-.29-3.49-8.01-4.23-10.55-1.19-4.02-2.02-6.92-2.68-10.47l-.11-.61h0ZM38.05,15.05l1.2-4.69,1.29,4.65-2.48.03h0Z"/>
      <path class="cls-1" d="M56.42,1.18c5.46,0,8,2.81,8,6.79,0,4.77-2.79,7.26-6.45,7.29-.93,0-1.92-.12-2.92-.37.06,3.72.4,6.85,1.83,7.78l-.03.25h-7.29l-.03-.25c1.8-1.12,1.86-5.67,1.83-10.82-.03-4.96-.19-9.43-1.83-10.39l.03-.25,6.76-.03s.06,0,.09,0M55.79,14.09c3.07,0,4.33-2.1,4.33-6.36,0-3.41-1.55-5.67-5.02-5.67l-.03,12c.25.02.5.04.73.04M56.42.43h-.09s-6.76.03-6.76.03h-.66s-.08.66-.08.66l-.03.25-.06.49.43.25c1.4.82,1.44,6.41,1.46,9.74.02,3.89.06,9.23-1.47,10.18l-.41.25.06.48.03.25.08.66h8.61l.08-.66.03-.25.06-.46-.39-.26c-1.18-.77-1.41-4.17-1.47-6.22.72.13,1.44.19,2.14.19,4.38-.04,7.2-3.19,7.2-8.04S61.9.43,56.42.43h0ZM55.81,13.34l.03-10.49c2.34.28,3.53,1.92,3.53,4.88,0,4.91-1.7,5.61-3.55,5.61h0Z"/>
      <path class="cls-1" d="M81.63,1.21l.03.25c-1.24.99-1.8,2.82-1.8,10.11,0,6.64.15,9.92,1.8,11.1l-.03.25h-7.22l-.03-.25c1.74-1.05,1.86-5.61,1.86-10.11h-5.86c-.06,5.46.28,9.08,1.83,10.11l-.03.25h-7.26l-.03-.25c1.49-1.12,1.86-3.35,1.86-11.1,0-5.95-.34-9.12-1.86-10.11l.03-.25h7.26l.03.25c-1.71,1.12-1.83,5.27-1.83,10.11h5.86c0-5.55-.28-9.21-1.86-10.11l.03-.25h7.22M82.29.46h-8.55l-.08.66-.03.25-.06.5.44.25c1.37.78,1.47,5.6,1.48,8.71h-4.36c0-3.35.11-7.82,1.49-8.73l.39-.26-.06-.46-.03-.25-.08-.66h-8.58l-.08.66-.03.25-.06.46.39.26c1.26.82,1.52,4.39,1.52,9.48,0,7.32-.34,9.58-1.56,10.5l-.35.26.05.43.03.25.08.66h8.58l.08-.66.03-.25.06-.46-.39-.26c-1.32-.87-1.52-4.99-1.5-8.73h4.37c0,3.09-.12,7.88-1.5,8.72l-.42.25.06.48.03.25.08.66h8.55l.08-.66.03-.25.05-.44-.36-.26c-1.39-.99-1.48-4.63-1.48-10.49,0-6.99.53-8.74,1.52-9.52l.33-.26-.05-.42-.03-.25-.08-.66h0Z"/>
      <path class="cls-1" d="M90.09,1.21l.03.25c-1.43,1.02-1.83,3.75-1.83,10.11,0,5.15.03,10.02,1.83,11.1l-.03.25h-7.13l-.03-.25c1.77-1.15,1.86-5.49,1.86-9.58v-1.43c0-5.58-.31-9.18-1.86-10.2l.03-.25h7.13M90.75.46h-8.45l-.08.66-.03.25-.06.46.39.26c1.34.88,1.52,5.12,1.52,9.58v1.43c0,2.98,0,7.97-1.52,8.95l-.39.26.06.47.03.25.08.66h8.45l.08-.66.03-.25.06-.48-.42-.25c-1.47-.88-1.47-6.19-1.47-10.46,0-6.13.41-8.71,1.52-9.5l.36-.26-.06-.44-.03-.25-.08-.66h0Z"/>
      <path class="cls-1" d="M100.94.75c2.29,0,4.59,1.24,5.43,2.2l-1.52,6.2-.16-.03c-1.3-4.09-4.22-6.85-6.54-6.85-1.83,0-3.44,1.71-3.44,5.92,0,6.57,3.53,13.86,6.82,13.86,1.67,0,2.17-2.2,2.17-4.19,0-.96-.12-1.89-.28-2.48l.19-.06,3.54,2.05c-1.08,3.94-4.28,5.92-7.53,5.92-4.25,0-8.68-3.35-8.68-10.05,0-8.59,5.18-12.5,10.02-12.5M100.94,0c-5.18,0-10.77,4.14-10.77,13.25,0,7.09,4.74,10.8,9.43,10.8,3.93,0,7.17-2.54,8.26-6.47l.15-.56-.5-.29-3.54-2.05-.29-.17-.32.11-.19.06-.66.22.18.68c.12.46.25,1.31.25,2.29,0,.57-.07,3.44-1.42,3.44-3.01,0-6.07-7.63-6.07-13.11,0-3.24,1.01-5.17,2.69-5.17,1.87,0,4.57,2.37,5.83,6.33l.13.42.43.09.16.03.71.14.17-.7,1.52-6.2.09-.38-.26-.29c-1.05-1.21-3.58-2.46-5.99-2.46h0Z"/>
      <path class="cls-1" d="M114.89.75c3.81,0,5.83,2.17,5.83,2.17l-2.2,5.4h-.19c-.62-4.81-2.85-6.57-4.74-6.57-1.58,0-2.95,1.21-2.95,2.88,0,4.4,10.36,5.12,10.36,11.94,0,3.63-2.42,6.73-7.38,6.73-4.09,0-6.29-2.51-6.29-2.51l1.52-6.39.19.03c.65,2.67,2.29,7.94,5.83,7.94,1.67,0,3.35-1.18,3.35-3.19,0-4.99-10.48-5.21-10.48-12.25,0-3.6,3.13-6.17,7.16-6.17M114.89,0c-4.51,0-7.91,2.97-7.91,6.92,0,4.25,3.34,6.21,6.28,7.93,2.25,1.32,4.2,2.46,4.2,4.31,0,1.59-1.34,2.44-2.6,2.44-2.87,0-4.43-4.61-5.1-7.37l-.12-.48-.49-.08-.19-.03-.69-.11-.16.68-1.52,6.39-.09.38.26.29c.1.11,2.48,2.77,6.86,2.77,4.05,0,8.13-2.31,8.13-7.48,0-4.21-3.54-6.33-6.39-8.03-2.13-1.27-3.97-2.37-3.97-3.91,0-1.2.96-2.13,2.2-2.13,1.49,0,3.44,1.55,4,5.92l.08.65h1.35l.19-.47,2.2-5.4.18-.44-.33-.35c-.09-.1-2.28-2.41-6.38-2.41h0Z"/>
      <path class="cls-1" d="M123.63,19.66c1.18,0,1.8.81,1.8,1.92-.06,1.74-1.58,3.29-3.57,3.72l-.4-.31c.68-.4,1.24-1.27,1.24-1.95-.53-.31-.84-.87-.84-1.58,0-1.02.71-1.8,1.77-1.8M123.63,18.91c-1.44,0-2.52,1.1-2.52,2.55,0,.76.28,1.43.77,1.9-.13.35-.43.77-.81.99l-.95.56.88.68.4.31.28.21.34-.07c2.33-.51,4.08-2.37,4.16-4.43,0-1.63-1.02-2.7-2.55-2.7h0Z"/>
      <path class="cls-1" d="M132.19,22.92l-.03-.25c1.92-.96,1.89-6.73,1.83-11.25-.06-4.53.03-8.53-1.83-9.92l.03-.28,6.76-.03c3.16,0,6.36,1.46,6.36,5.02,0,2.26-1.61,4.06-3.44,4.65,2.85.34,5.18,2.6,5.18,6.05,0,4.15-2.73,6.08-7.04,6.08l-7.81-.06ZM141.24,6.58c0-2.26-1.02-4.56-3.41-4.46l-.16,8.93c2.39-.43,3.57-1.98,3.57-4.46ZM142.79,16.59c0-1.74-.46-4.15-3.16-4.96-.65.09-1.27.12-1.95.12l.09,8.37c.03.87.31,1.8,1.43,1.8,1.46,0,3.6-1.61,3.6-5.33Z"/>
      <path class="cls-1" d="M146.45,22.92l-.03-.25c1.49-1.4,2.26-1.86,3.91-8.43,1.05-4.12,2.33-9.12,3.19-13.18h2.17c.68,3.66,1.55,6.67,2.7,10.54,2.05,7.04,3.44,10.76,4.77,11.07l-.03.25h-7.88l-.03-.25c1.18-1.18.78-3.41.22-6.08h-4.81c-.59,2.36-1.39,4.93.28,6.08l-.03.25h-4.43ZM150.79,15.82l4.43-.06-2.29-8.31-2.14,8.37Z"/>
      <path class="cls-1" d="M169.98,15.51c-.37-.68-.9-.9-1.21-.96.03,4.22.46,7.22,1.83,8.12l-.06.25h-7.29l-.03-.25c2.11-1.3,1.86-7.44,1.86-10.82s-.06-9.43-1.86-10.39l.03-.25,6.14-.03c5.21-.03,8.56,1.49,8.56,6.45,0,4.22-2.91,6.98-7.57,7.01,1.15.84,1.98,3.5,4.16,3.5,1.36.03,2.23-.47,2.88-1.21l.16.06v5.77s-.62.53-2.01.53c-3.32,0-3.91-4.62-5.58-7.78ZM173.85,7.7c0-3.84-1.49-5.64-5.05-5.64l-.03,9.71v1.92c3.29.53,5.08-2.6,5.08-5.98Z"/>
      <path class="cls-1" d="M185.91,15.51c-.37-.68-.9-.9-1.21-.96.03,4.22.46,7.22,1.83,8.12l-.06.25h-7.29l-.03-.25c2.11-1.3,1.86-7.44,1.86-10.82s-.06-9.43-1.86-10.39l.03-.25,6.14-.03c5.21-.03,8.56,1.49,8.56,6.45,0,4.22-2.91,6.98-7.57,7.01,1.15.84,1.98,3.5,4.16,3.5,1.36.03,2.23-.47,2.88-1.21l.16.06v5.77s-.62.53-2.01.53c-3.32,0-3.91-4.62-5.58-7.78ZM189.79,7.7c0-3.84-1.49-5.64-5.05-5.64l-.03,9.71v1.92c3.29.53,5.08-2.6,5.08-5.98Z"/>
      <path class="cls-1" d="M195.09,22.67c1.89-1.49,1.83-5.74,1.83-10.98,0-5.8-.12-8.74-1.83-10.23l.03-.25h13.98c-.59,1.98-1.24,4.31-1.27,6.6h-.15c-.96-3.47-1.24-5.86-5.36-5.77h-1.55c-.12,3.19-.16,6.17-.16,9.27,0,0,2.42-2.45,3.97-2.45.5,0,.81.09.81.09v5.43l-.19.03c-.47-1.64-1.43-3.16-2.73-3.16-.59,0-1.18.28-1.86.93,0,3.26.03,4.46.12,7.84.03,1.09.19,2.02,1.18,2.02,3.16.03,5.05-1.3,5.98-6.6l.15-.03c.03,2.7.28,5.12.81,7.5h-13.74l-.03-.25Z"/>
      <path class="cls-1" d="M224.1.75c3.81,0,5.83,2.17,5.83,2.17l-2.2,5.4h-.19c-.62-4.81-2.85-6.57-4.74-6.57-1.58,0-2.95,1.21-2.95,2.88,0,4.4,10.36,5.12,10.36,11.94,0,3.63-2.42,6.73-7.38,6.73-4.09,0-6.29-2.51-6.29-2.51l1.52-6.39.19.03c.65,2.67,2.29,7.94,5.83,7.94,1.67,0,3.35-1.18,3.35-3.19,0-4.99-10.48-5.21-10.48-12.25,0-3.6,3.13-6.17,7.16-6.17M224.1,0c-4.51,0-7.91,2.97-7.91,6.92,0,4.25,3.34,6.21,6.28,7.93,2.25,1.32,4.2,2.46,4.2,4.31,0,1.59-1.34,2.44-2.6,2.44-2.87,0-4.43-4.61-5.1-7.37l-.12-.48-.49-.08-.19-.03-.69-.11-.16.68-1.52,6.39-.09.38.26.29c.1.11,2.48,2.77,6.86,2.77,4.05,0,8.13-2.31,8.13-7.48,0-4.21-3.54-6.33-6.39-8.03-2.13-1.27-3.97-2.37-3.97-3.91,0-1.2.96-2.13,2.2-2.13,1.49,0,3.44,1.55,4,5.92l.08.65h1.35l.19-.47,2.2-5.4.18-.44-.33-.35c-.09-.1-2.29-2.41-6.38-2.41h0Z"/>
      <path class="cls-1" d="M238.39,1.21l.03.25c-1.43,1.02-1.83,3.75-1.83,10.11,0,5.15.03,10.02,1.83,11.1l-.03.25h-7.13l-.03-.25c1.77-1.15,1.86-5.49,1.86-9.58v-1.43c0-5.58-.31-9.18-1.86-10.2l.03-.25h7.13M239.06.46h-8.45l-.08.66-.03.25-.06.46.39.26c1.34.88,1.52,5.12,1.52,9.58v1.43c0,2.98,0,7.97-1.52,8.95l-.39.26.06.47.03.25.08.66h8.45l.08-.66.03-.25.06-.48-.42-.25c-1.47-.89-1.47-6.19-1.47-10.46,0-6.13.41-8.71,1.52-9.5l.36-.26-.06-.44-.03-.25-.08-.66h0Z"/>
      <path class="cls-1" d="M249.24.75c2.29,0,4.28.96,5.12,1.92l-.59,5.49-.16-.03c-1.52-3.22-4.56-5.83-6.98-5.83-1.95,0-3.63,1.58-3.63,5.67,0,7.38,4.22,13.39,6.91,13.39,1.24,0,2.14-1.24,2.14-4.19,0-2.17-.74-4.84-2.45-5.36l.03-.25,5.89-.03.03.06s-.62,1.02-.62,3.5v3.26c0,2.98.37,4.37.37,4.37h-.09s-1.3-.81-2.23-2.42c-1.49,2.08-3.41,2.98-5.4,2.98-4.12,0-8.37-4.06-8.37-10.23,0-8.59,5.18-12.31,10.02-12.31M249.24,0c-2.81,0-5.43,1.13-7.37,3.17-2.22,2.35-3.4,5.77-3.4,9.89,0,6.78,4.74,10.98,9.12,10.98,2.06,0,3.89-.85,5.34-2.46.9,1.17,1.84,1.76,1.89,1.79l.18.11h1.28l-.25-.94s-.35-1.37-.35-4.18v-3.26c0-.9.09-2.17.53-3.13.12-.27.12-.52,0-.74l-.02-.03-.21-.41h-.46s-5.89.03-5.89.03h-.66s-.08.66-.08.66l-.03.25-.08.62.6.19c1.25.39,1.92,2.68,1.92,4.65,0,2.15-.52,3.44-1.39,3.44-2.06,0-6.16-5.47-6.16-12.64,0-3.13,1.05-4.92,2.88-4.92,2.07,0,4.9,2.42,6.3,5.4l.16.34.37.07.16.03.81.16.09-.82.59-5.49.03-.33-.22-.25c-.91-1.05-3.08-2.18-5.68-2.18h0Z"/>
      <path class="cls-1" d="M273.46,1.21l.03.25c-1.83,1.98-2.14,5.8-2.14,12.59v9.18h-.16l-11.84-17.12v5.43c0,6.45.4,9.33,2.14,11.13l-.03.25h-5.05l-.03-.25c1.8-1.83,2.11-4.68,2.11-11.16,0-6.11-.47-8.96-1.86-10.05l-.03-.25h3.22c1.02.09,2.01.5,3.04,2.02l7.63,11.19c0-6.79.12-10.88-2.17-12.96v-.25h5.15M274.12.46h-6.56v1.33l.25.22c1.77,1.61,1.92,4.8,1.93,9.97l-6.26-9.18c-1-1.48-2.11-2.21-3.59-2.34h-.03s-.03,0-.03,0h-4.07l.1.84.03.25.04.31.25.19c1.12.87,1.57,3.61,1.57,9.45,0,6.14-.26,8.98-1.89,10.64l-.25.26.05.36.03.25.08.66h6.38l.08-.66.03-.25.04-.35-.25-.26c-1.48-1.53-1.93-4.01-1.93-10.61v-3.02l10.48,15.14.22.32h1.3v-9.93c0-6.62.3-10.3,1.94-12.08l.24-.25-.04-.34-.03-.25-.08-.66h0Z"/>
      <path class="cls-1" d="M281.92,1.06c.68,3.66,1.55,6.67,2.7,10.54,2.05,7.04,3.44,10.76,4.77,11.07l-.03.25h-7.88l-.03-.25c1.18-1.18.78-3.41.22-6.08h-4.81c-.59,2.36-1.4,4.93.28,6.08l-.03.25h-4.43l-.03-.25c1.49-1.4,2.26-1.86,3.91-8.43,1.05-4.12,2.33-9.12,3.19-13.18h2.17M277.02,15.82l4.43-.06-2.29-8.31-2.14,8.37M282.54.31h-3.4l-.13.59c-.89,4.14-2.22,9.35-3.19,13.15-1.51,6.04-2.21,6.69-3.48,7.87l-.21.2-.28.26.05.38.03.25.08.66h5.76l.08-.66.03-.25.06-.45-.38-.26c-1.03-.71-.71-2.4-.12-4.71h3.61c.45,2.24.67,3.99-.14,4.8l-.26.26.05.36.03.25.08.66h9.2l.08-.66.03-.25.08-.67-.66-.15c-1.24-.29-3.49-8.01-4.22-10.55-1.19-4.02-2.02-6.91-2.68-10.47l-.11-.61h0ZM277.99,15.05l1.2-4.69,1.28,4.65-2.48.03h0Z"/>
      <path class="cls-1" d="M298.22.75c2.29,0,4.28.96,5.12,1.92l-.59,5.49-.16-.03c-1.52-3.22-4.56-5.83-6.98-5.83-1.95,0-3.63,1.58-3.63,5.67,0,7.38,4.22,13.39,6.91,13.39,1.24,0,2.14-1.24,2.14-4.19,0-2.17-.74-4.84-2.45-5.36l.03-.25,5.89-.03.03.06s-.62,1.02-.62,3.5v3.26c0,2.98.37,4.37.37,4.37h-.09s-1.3-.81-2.23-2.42c-1.49,2.08-3.41,2.98-5.4,2.98-4.12,0-8.37-4.06-8.37-10.23,0-8.59,5.18-12.31,10.02-12.31M298.22,0c-2.81,0-5.43,1.13-7.37,3.17-2.22,2.35-3.4,5.77-3.4,9.89,0,6.78,4.74,10.98,9.12,10.98,2.06,0,3.89-.85,5.34-2.46.9,1.17,1.84,1.76,1.89,1.79l.18.11h1.28l-.25-.94s-.35-1.37-.35-4.18v-3.26c0-.9.09-2.17.53-3.13.12-.27.12-.52,0-.74l-.02-.03-.21-.41h-.46s-5.89.03-5.89.03h-.66s-.08.66-.08.66l-.03.25-.08.62.6.19c1.25.39,1.92,2.68,1.92,4.65,0,2.15-.52,3.44-1.39,3.44-2.06,0-6.16-5.47-6.16-12.64,0-3.13,1.05-4.92,2.88-4.92,2.07,0,4.9,2.42,6.3,5.4l.16.34.37.07.16.03.81.16.09-.82.59-5.49.03-.33-.22-.25c-.91-1.05-3.08-2.18-5.68-2.18h0Z"/>
      <path class="cls-1" d="M319.55,1.21c-.59,1.98-1.24,4.31-1.27,6.6h-.15c-.94-3.41-1.23-5.77-5.14-5.77-.08,0-.15,0-.23,0h-1.55c-.12,3.19-.16,6.17-.16,9.27,0,0,2.42-2.45,3.97-2.45.5,0,.81.09.81.09v5.43l-.19.03c-.47-1.64-1.43-3.16-2.73-3.16-.59,0-1.18.28-1.86.93,0,3.26.03,4.46.12,7.84.03,1.09.19,2.02,1.18,2.02.04,0,.07,0,.11,0,3.1,0,4.96-1.36,5.88-6.61l.15-.03c.03,2.7.28,5.12.81,7.5h-13.74l-.03-.25c1.89-1.49,1.83-5.74,1.83-10.98,0-5.8-.12-8.74-1.83-10.23l.03-.25h13.98M320.56.46h-15.65l-.08.66-.03.25-.05.4.3.26c1.42,1.24,1.57,3.9,1.57,9.67v.49c0,4.66,0,8.68-1.54,9.9l-.33.26.05.42.03.25.08.66h15.33l-.2-.91c-.51-2.29-.76-4.63-.79-7.35v-.9s-.9.18-.9.18l-.15.03-.5.1-.09.51c-.88,5.01-2.55,5.98-5.14,5.98h-.1c-.17,0-.4,0-.44-1.29-.09-3.36-.12-4.55-.12-7.49.54-.46.89-.51,1.11-.51.87,0,1.64,1.31,2.01,2.62l.18.65.66-.11.19-.03.63-.1v-6.62l-.53-.16s-.43-.12-1.02-.12c-1.06,0-2.29.79-3.22,1.52.01-2.59.05-4.73.12-6.84h1.06c3.01,0,3.41,1.47,4.19,4.4.07.27.14.54.22.82l.15.55h1.46v-.74c.04-2.15.64-4.34,1.25-6.4l.29-.96h0Z"/>
      <path class="cls-1" d="M321.87,19.66c1.18,0,1.8.81,1.8,1.92-.06,1.74-1.58,3.29-3.57,3.72l-.4-.31c.68-.4,1.24-1.27,1.24-1.95-.53-.31-.84-.87-.84-1.58,0-1.02.71-1.8,1.77-1.8M321.87,18.91c-1.44,0-2.52,1.1-2.52,2.55,0,.76.28,1.43.77,1.9-.13.35-.43.77-.81.99l-.95.56.88.68.4.31.28.21.34-.07c2.33-.51,4.08-2.37,4.16-4.43,0-1.63-1.02-2.7-2.55-2.7h0Z"/>
      <path class="cls-1" d="M340.35.75c2.29,0,4.28.96,5.12,1.92l-.59,5.49-.16-.03c-1.52-3.22-4.56-5.83-6.98-5.83-1.95,0-3.63,1.58-3.63,5.67,0,7.38,4.22,13.39,6.91,13.39,1.24,0,2.14-1.24,2.14-4.19,0-2.17-.74-4.84-2.45-5.36l.03-.25,5.89-.03.03.06s-.62,1.02-.62,3.5v3.26c0,2.98.37,4.37.37,4.37h-.09s-1.3-.81-2.23-2.42c-1.49,2.08-3.41,2.98-5.4,2.98-4.12,0-8.37-4.06-8.37-10.23,0-8.59,5.18-12.31,10.02-12.31M340.35,0c-2.81,0-5.43,1.13-7.37,3.17-2.22,2.35-3.4,5.77-3.4,9.89,0,6.78,4.74,10.98,9.12,10.98,2.06,0,3.89-.85,5.34-2.46.9,1.17,1.84,1.76,1.89,1.79l.18.11h1.28l-.25-.94s-.35-1.37-.35-4.18v-3.26c0-.9.09-2.17.53-3.13.12-.27.12-.52,0-.74l-.02-.03-.21-.41h-.46s-5.89.03-5.89.03h-.66s-.08.66-.08.66l-.03.25-.08.62.6.19c1.25.39,1.92,2.68,1.92,4.65,0,2.15-.52,3.44-1.39,3.44-2.06,0-6.16-5.47-6.16-12.64,0-3.13,1.05-4.92,2.88-4.92,2.07,0,4.9,2.42,6.3,5.4l.16.34.37.07.16.03.81.16.09-.82.59-5.49.03-.33-.22-.25c-.91-1.05-3.08-2.18-5.68-2.18h0Z"/>
      <path class="cls-1" d="M353.99,1.45c5.12,0,8.4,1.54,8.4,6.45,0,4.22-2.91,6.98-7.57,7.01,1.15.84,1.98,3.5,4.16,3.5.04,0,.08,0,.12,0,1.3,0,2.13-.49,2.76-1.21l.15.06v5.77s-.62.53-2.02.53c-3.32,0-3.91-4.62-5.58-7.78-.37-.68-.9-.9-1.21-.96.03,4.22.47,7.22,1.83,8.12l-.06.25h-7.29l-.03-.25c2.11-1.3,1.86-7.44,1.86-10.82s-.06-9.43-1.86-10.39l.03-.25,6.14-.03c.05,0,.1,0,.15,0M353.93,14.01c2.83,0,4.37-2.91,4.37-6.04,0-3.84-1.49-5.64-5.05-5.64l-.03,9.71v1.92c.25.04.48.06.71.06M353.99.7h-.16s-6.14.03-6.14.03h-.66s-.08.66-.08.66l-.03.25-.06.51.46.24c.97.52,1.46,3.79,1.46,9.73,0,.31,0,.64,0,.98.02,2.88.05,8.24-1.51,9.2l-.41.25.06.48.03.25.08.66h8.53l.14-.57.06-.25.13-.52-.44-.29c-.82-.54-1.3-2.45-1.45-5.69.32.68.61,1.43.9,2.16,1.06,2.72,2.15,5.53,5.1,5.53,1.62,0,2.42-.63,2.5-.71l.26-.22v-6.62l-.47-.19-.15-.06-.49-.2-.35.4c-.58.66-1.26.95-2.2.95h-.1c-1.08,0-1.78-.97-2.46-1.91-.05-.07-.1-.14-.15-.21,4.15-.59,6.75-3.47,6.75-7.64,0-7.2-6.89-7.2-9.15-7.2h0ZM353.96,13.25v-1.23l.03-8.93c2.55.22,3.56,1.64,3.56,4.86,0,2.54-1.12,5.26-3.58,5.29h0Z"/>
      <path class="cls-1" d="M371.57,1.33c.68,3.66,1.55,6.67,2.7,10.54,2.05,7.04,3.44,10.76,4.78,11.07l-.03.25h-7.88l-.03-.25c1.18-1.18.77-3.41.22-6.08h-4.81c-.59,2.36-1.4,4.93.28,6.08l-.03.25h-4.43l-.03-.25c1.49-1.4,2.26-1.86,3.91-8.43,1.05-4.12,2.33-9.12,3.19-13.18h2.17M366.67,16.09l4.43-.06-2.29-8.31-2.14,8.37M372.19.58h-3.4l-.13.59c-.89,4.18-2.22,9.36-3.19,13.15-1.51,6.04-2.21,6.69-3.48,7.87l-.21.2-.28.26.05.38.03.25.08.66h5.76l.08-.66.03-.25.06-.45-.38-.26c-1.03-.71-.71-2.4-.12-4.71h3.61c.45,2.24.67,3.99-.14,4.8l-.26.26.05.36.03.25.08.66h9.2l.08-.66.03-.25.08-.67-.66-.15c-1.24-.29-3.49-8.01-4.23-10.55-1.19-4.02-2.02-6.92-2.68-10.47l-.11-.61h0ZM367.64,15.32l1.2-4.69,1.29,4.65-2.48.03h0Z"/>
      <path class="cls-1" d="M386.01,1.45c5.46,0,8,2.81,8,6.79,0,4.77-2.79,7.26-6.45,7.29-.93,0-1.92-.12-2.92-.37.06,3.72.4,6.85,1.83,7.78l-.03.25h-7.29l-.03-.25c1.8-1.12,1.86-5.67,1.83-10.82-.03-4.96-.19-9.43-1.83-10.39l.03-.25,6.76-.03s.06,0,.09,0M385.38,14.35c3.07,0,4.33-2.1,4.33-6.36,0-3.41-1.55-5.67-5.02-5.67l-.03,12c.25.02.5.04.73.04M386.01.7h-.09s-6.76.03-6.76.03h-.66s-.08.66-.08.66l-.03.25-.06.49.43.25c1.4.82,1.44,6.41,1.46,9.74.02,3.89.06,9.23-1.47,10.18l-.41.25.06.48.03.25.08.66h8.61l.08-.66.03-.25.06-.46-.39-.26c-1.18-.77-1.41-4.17-1.47-6.22.72.13,1.44.19,2.14.19,4.38-.04,7.2-3.19,7.2-8.04s-3.27-7.54-8.75-7.54h0ZM385.4,13.6l.03-10.49c2.34.28,3.52,1.92,3.52,4.88,0,4.91-1.7,5.61-3.55,5.61h0Z"/>
      <path class="cls-1" d="M411.22,1.48l.03.25c-1.24.99-1.8,2.82-1.8,10.11,0,6.64.15,9.92,1.8,11.1l-.03.25h-7.22l-.03-.25c1.74-1.05,1.86-5.61,1.86-10.11h-5.86c-.06,5.46.28,9.08,1.83,10.11l-.03.25h-7.26l-.03-.25c1.49-1.12,1.86-3.35,1.86-11.1,0-5.95-.34-9.12-1.86-10.11l.03-.25h7.26l.03.25c-1.71,1.12-1.83,5.27-1.83,10.11h5.86c0-5.55-.28-9.21-1.86-10.11l.03-.25h7.22M411.88.73h-8.55l-.08.66-.03.25-.06.5.44.25c1.37.78,1.47,5.6,1.48,8.71h-4.36c0-3.35.11-7.82,1.49-8.73l.39-.26-.06-.46-.03-.25-.08-.66h-8.58l-.08.66-.03.25-.06.46.39.26c1.26.82,1.52,4.39,1.52,9.48,0,7.32-.34,9.58-1.56,10.5l-.35.26.05.43.03.25.08.66h8.58l.08-.66.03-.25.06-.46-.39-.26c-1.32-.87-1.52-4.99-1.5-8.73h4.37c0,3.09-.12,7.88-1.5,8.72l-.42.25.06.48.03.25.08.66h8.55l.08-.66.03-.25.05-.44-.36-.26c-1.38-.99-1.48-4.63-1.48-10.49,0-6.98.53-8.74,1.52-9.52l.33-.26-.05-.42-.03-.25-.08-.66h0Z"/>
      <path class="cls-1" d="M419.68,1.48l.03.25c-1.43,1.02-1.83,3.75-1.83,10.11,0,5.15.03,10.02,1.83,11.1l-.03.25h-7.13l-.03-.25c1.77-1.15,1.86-5.49,1.86-9.58v-1.43c0-5.58-.31-9.18-1.86-10.2l.03-.25h7.13M420.34.73h-8.45l-.08.66-.03.25-.06.46.39.26c1.34.88,1.52,5.12,1.52,9.58v1.43c0,2.98,0,7.97-1.52,8.95l-.39.26.06.47.03.25.08.66h8.45l.08-.66.03-.25.06-.48-.42-.25c-1.47-.88-1.47-6.19-1.47-10.46,0-6.13.41-8.71,1.52-9.5l.36-.26-.06-.44-.03-.25-.08-.66h0Z"/>
      <path class="cls-1" d="M430.53,1.02c2.29,0,4.59,1.24,5.43,2.2l-1.52,6.2-.16-.03c-1.3-4.09-4.22-6.85-6.54-6.85-1.83,0-3.44,1.71-3.44,5.92,0,6.57,3.53,13.86,6.82,13.86,1.67,0,2.17-2.2,2.17-4.19,0-.96-.12-1.89-.28-2.48l.19-.06,3.54,2.05c-1.08,3.94-4.28,5.92-7.53,5.92-4.25,0-8.68-3.35-8.68-10.05,0-8.59,5.18-12.5,10.02-12.5M430.53.27c-5.18,0-10.77,4.14-10.77,13.25,0,7.09,4.74,10.8,9.43,10.8,3.93,0,7.17-2.54,8.26-6.47l.15-.56-.5-.29-3.54-2.05-.29-.17-.32.11-.19.06-.66.22.18.68c.12.46.25,1.31.25,2.29,0,.57-.07,3.44-1.42,3.44-3.01,0-6.07-7.63-6.07-13.11,0-3.24,1.01-5.17,2.69-5.17,1.87,0,4.57,2.37,5.83,6.33l.13.42.43.09.16.03.71.14.17-.7,1.52-6.2.09-.38-.26-.29c-1.05-1.21-3.58-2.46-5.99-2.46h0Z"/>
      <path class="cls-1" d="M444.48,1.02c3.81,0,5.83,2.17,5.83,2.17l-2.2,5.4h-.19c-.62-4.81-2.85-6.57-4.74-6.57-1.58,0-2.95,1.21-2.95,2.88,0,4.4,10.36,5.12,10.36,11.94,0,3.63-2.42,6.73-7.38,6.73-4.09,0-6.29-2.51-6.29-2.51l1.52-6.39.19.03c.65,2.67,2.29,7.94,5.83,7.94,1.67,0,3.35-1.18,3.35-3.19,0-4.99-10.48-5.21-10.48-12.25,0-3.6,3.13-6.17,7.16-6.17M444.48.27c-4.51,0-7.91,2.97-7.91,6.92,0,4.25,3.34,6.21,6.28,7.93,2.25,1.32,4.2,2.46,4.2,4.31,0,1.59-1.34,2.44-2.6,2.44-2.87,0-4.43-4.61-5.1-7.37l-.12-.48-.49-.08-.19-.03-.69-.11-.16.68-1.52,6.39-.09.38.26.29c.1.11,2.48,2.77,6.86,2.77,4.05,0,8.13-2.31,8.13-7.48,0-4.21-3.54-6.33-6.39-8.03-2.13-1.27-3.97-2.37-3.97-3.91,0-1.2.96-2.13,2.2-2.13,1.49,0,3.44,1.55,4,5.92l.08.65h1.35l.19-.47,2.2-5.4.18-.44-.33-.35c-.09-.1-2.28-2.41-6.38-2.41h0Z"/>
      <path class="cls-1" d="M453.22,19.93c1.18,0,1.8.81,1.8,1.92-.06,1.74-1.58,3.29-3.57,3.72l-.4-.31c.68-.4,1.24-1.27,1.24-1.95-.53-.31-.84-.87-.84-1.58,0-1.02.71-1.8,1.77-1.8M453.22,19.18c-1.44,0-2.52,1.1-2.52,2.55,0,.76.28,1.43.77,1.9-.13.35-.43.77-.81.99l-.95.56.88.68.4.31.28.21.34-.07c2.33-.51,4.08-2.37,4.16-4.43,0-1.63-1.02-2.7-2.55-2.7h0Z"/>
      <path class="cls-1" d="M461.78,23.19l-.03-.25c1.92-.96,1.89-6.73,1.83-11.25-.06-4.53.03-8.53-1.83-9.92l.03-.28,6.76-.03c3.16,0,6.36,1.46,6.36,5.02,0,2.26-1.61,4.06-3.44,4.65,2.85.34,5.18,2.6,5.18,6.05,0,4.15-2.73,6.08-7.04,6.08l-7.81-.06ZM470.83,6.85c0-2.26-1.02-4.56-3.41-4.46l-.16,8.93c2.39-.43,3.57-1.98,3.57-4.46ZM472.38,16.86c0-1.74-.46-4.15-3.16-4.96-.65.09-1.27.12-1.95.12l.09,8.37c.03.87.31,1.8,1.43,1.8,1.46,0,3.6-1.61,3.6-5.33Z"/>
      <path class="cls-1" d="M476.03,23.19l-.03-.25c1.49-1.4,2.26-1.86,3.91-8.43,1.05-4.12,2.33-9.12,3.19-13.18h2.17c.68,3.66,1.55,6.67,2.7,10.54,2.05,7.04,3.44,10.76,4.77,11.07l-.03.25h-7.88l-.03-.25c1.18-1.18.78-3.41.22-6.08h-4.81c-.59,2.36-1.39,4.93.28,6.08l-.03.25h-4.43ZM480.37,16.09l4.43-.06-2.29-8.31-2.14,8.37Z"/>
      <path class="cls-1" d="M499.56,15.78c-.37-.68-.9-.9-1.21-.96.03,4.22.46,7.22,1.83,8.12l-.06.25h-7.29l-.03-.25c2.11-1.3,1.86-7.44,1.86-10.82s-.06-9.43-1.86-10.39l.03-.25,6.14-.03c5.21-.03,8.56,1.49,8.56,6.45,0,4.22-2.91,6.98-7.57,7.01,1.15.84,1.98,3.5,4.16,3.5,1.36.03,2.23-.47,2.88-1.21l.16.06v5.77s-.62.53-2.01.53c-3.32,0-3.91-4.62-5.58-7.78ZM503.44,7.96c0-3.84-1.49-5.64-5.05-5.64l-.03,9.71v1.92c3.29.53,5.08-2.6,5.08-5.98Z"/>
      <path class="cls-1" d="M515.5,15.78c-.37-.68-.9-.9-1.21-.96.03,4.22.46,7.22,1.83,8.12l-.06.25h-7.29l-.03-.25c2.11-1.3,1.86-7.44,1.86-10.82s-.06-9.43-1.86-10.39l.03-.25,6.14-.03c5.21-.03,8.56,1.49,8.56,6.45,0,4.22-2.91,6.98-7.57,7.01,1.15.84,1.98,3.5,4.16,3.5,1.36.03,2.23-.47,2.88-1.21l.16.06v5.77s-.62.53-2.01.53c-3.32,0-3.91-4.62-5.58-7.78ZM519.37,7.96c0-3.84-1.49-5.64-5.05-5.64l-.03,9.71v1.92c3.29.53,5.08-2.6,5.08-5.98Z"/>
      <path class="cls-1" d="M524.67,22.94c1.89-1.49,1.83-5.74,1.83-10.98,0-5.8-.12-8.74-1.83-10.23l.03-.25h13.98c-.59,1.98-1.24,4.31-1.27,6.6h-.15c-.96-3.47-1.24-5.86-5.36-5.77h-1.55c-.12,3.19-.16,6.17-.16,9.27,0,0,2.42-2.45,3.97-2.45.5,0,.81.09.81.09v5.43l-.19.03c-.47-1.64-1.43-3.16-2.73-3.16-.59,0-1.18.28-1.86.93,0,3.26.03,4.46.12,7.84.03,1.09.19,2.02,1.18,2.02,3.16.03,5.05-1.3,5.98-6.6l.15-.03c.03,2.7.28,5.12.81,7.5h-13.74l-.03-.25Z"/>
      <path class="cls-1" d="M553.69,1.02c3.81,0,5.83,2.17,5.83,2.17l-2.2,5.4h-.19c-.62-4.81-2.85-6.57-4.74-6.57-1.58,0-2.95,1.21-2.95,2.88,0,4.4,10.36,5.12,10.36,11.94,0,3.63-2.42,6.73-7.38,6.73-4.09,0-6.29-2.51-6.29-2.51l1.52-6.39.19.03c.65,2.67,2.29,7.94,5.83,7.94,1.67,0,3.35-1.18,3.35-3.19,0-4.99-10.48-5.21-10.48-12.25,0-3.6,3.13-6.17,7.16-6.17M553.69.27c-4.51,0-7.91,2.97-7.91,6.92,0,4.25,3.34,6.21,6.28,7.93,2.25,1.32,4.2,2.46,4.2,4.31,0,1.59-1.34,2.44-2.6,2.44-2.87,0-4.43-4.61-5.1-7.37l-.12-.48-.49-.08-.19-.03-.69-.11-.16.68-1.52,6.39-.09.38.26.29c.1.11,2.48,2.77,6.86,2.77,4.05,0,8.13-2.31,8.13-7.48,0-4.21-3.54-6.33-6.39-8.03-2.13-1.27-3.97-2.37-3.97-3.91,0-1.2.96-2.13,2.2-2.13,1.49,0,3.44,1.55,4,5.92l.08.65h1.35l.19-.47,2.2-5.4.18-.44-.33-.35c-.09-.1-2.29-2.41-6.38-2.41h0Z"/>
      <path class="cls-1" d="M567.98,1.48l.03.25c-1.43,1.02-1.83,3.75-1.83,10.11,0,5.15.03,10.02,1.83,11.1l-.03.25h-7.13l-.03-.25c1.77-1.15,1.86-5.49,1.86-9.58v-1.43c0-5.58-.31-9.18-1.86-10.2l.03-.25h7.13M568.64.73h-8.45l-.08.66-.03.25-.06.46.39.26c1.34.88,1.52,5.12,1.52,9.58v1.43c0,2.98,0,7.97-1.52,8.95l-.39.26.06.47.03.25.08.66h8.45l.08-.66.03-.25.06-.48-.42-.25c-1.47-.89-1.47-6.19-1.47-10.46,0-6.13.41-8.71,1.52-9.5l.36-.26-.06-.44-.03-.25-.08-.66h0Z"/>
      <path class="cls-1" d="M578.83,1.02c2.29,0,4.28.96,5.12,1.92l-.59,5.49-.16-.03c-1.52-3.22-4.56-5.83-6.98-5.83-1.95,0-3.63,1.58-3.63,5.67,0,7.38,4.22,13.39,6.91,13.39,1.24,0,2.14-1.24,2.14-4.19,0-2.17-.74-4.84-2.45-5.36l.03-.25,5.89-.03.03.06s-.62,1.02-.62,3.5v3.26c0,2.98.37,4.37.37,4.37h-.09s-1.3-.81-2.23-2.42c-1.49,2.08-3.41,2.98-5.4,2.98-4.12,0-8.37-4.06-8.37-10.23,0-8.59,5.18-12.31,10.02-12.31M578.83.27c-2.81,0-5.43,1.13-7.37,3.17-2.22,2.35-3.4,5.77-3.4,9.89,0,6.78,4.74,10.98,9.12,10.98,2.06,0,3.89-.85,5.34-2.46.9,1.17,1.84,1.76,1.89,1.79l.18.11h1.28l-.25-.94s-.35-1.37-.35-4.18v-3.26c0-.9.09-2.17.53-3.13.12-.27.12-.52,0-.74l-.02-.03-.21-.41h-.46s-5.89.03-5.89.03h-.66s-.08.66-.08.66l-.03.25-.08.62.6.19c1.25.39,1.92,2.68,1.92,4.65,0,2.15-.52,3.44-1.39,3.44-2.06,0-6.16-5.47-6.16-12.64,0-3.13,1.05-4.92,2.88-4.92,2.07,0,4.9,2.42,6.3,5.4l.16.34.37.07.16.03.81.16.09-.82.59-5.49.03-.33-.22-.25c-.91-1.05-3.08-2.18-5.68-2.18h0Z"/>
      <path class="cls-1" d="M603.04,1.48l.03.25c-1.83,1.98-2.14,5.8-2.14,12.59v9.18h-.16l-11.84-17.12v5.43c0,6.45.4,9.33,2.14,11.13l-.03.25h-5.05l-.03-.25c1.8-1.83,2.11-4.68,2.11-11.16,0-6.11-.47-8.96-1.86-10.05l-.03-.25h3.22c1.02.09,2.01.5,3.04,2.02l7.63,11.19c0-6.79.12-10.88-2.17-12.96v-.25h5.15M603.71.73h-6.56v1.33l.25.22c1.77,1.61,1.92,4.8,1.93,9.97l-6.26-9.18c-1-1.48-2.11-2.21-3.59-2.34h-.03s-.03,0-.03,0h-4.07l.1.84.03.25.04.31.25.19c1.12.87,1.57,3.61,1.57,9.45,0,6.14-.26,8.98-1.89,10.64l-.25.26.05.36.03.25.08.66h6.38l.08-.66.03-.25.04-.35-.25-.26c-1.48-1.53-1.93-4.01-1.93-10.61v-3.02l10.48,15.14.22.32h1.3v-9.93c0-6.62.3-10.3,1.94-12.08l.24-.25-.04-.34-.03-.25-.08-.66h0Z"/>
      <path class="cls-1" d="M611.5,1.33c.68,3.66,1.55,6.67,2.7,10.54,2.05,7.04,3.44,10.76,4.77,11.07l-.03.25h-7.88l-.03-.25c1.18-1.18.78-3.41.22-6.08h-4.81c-.59,2.36-1.4,4.93.28,6.08l-.03.25h-4.43l-.03-.25c1.49-1.4,2.26-1.86,3.91-8.43,1.05-4.12,2.33-9.12,3.19-13.18h2.17M606.6,16.09l4.43-.06-2.29-8.31-2.14,8.37M612.13.58h-3.4l-.13.59c-.89,4.14-2.22,9.35-3.19,13.15-1.51,6.04-2.21,6.69-3.48,7.87l-.21.2-.28.26.05.38.03.25.08.66h5.76l.08-.66.03-.25.06-.45-.38-.26c-1.03-.71-.71-2.4-.12-4.71h3.61c.45,2.24.67,3.99-.14,4.8l-.26.26.05.36.03.25.08.66h9.2l.08-.66.03-.25.08-.67-.66-.15c-1.24-.29-3.49-8.01-4.22-10.55-1.19-4.02-2.02-6.91-2.68-10.47l-.11-.61h0ZM607.57,15.32l1.2-4.69,1.28,4.65-2.48.03h0Z"/>
      <path class="cls-1" d="M627.81,1.02c2.29,0,4.28.96,5.12,1.92l-.59,5.49-.16-.03c-1.52-3.22-4.56-5.83-6.98-5.83-1.95,0-3.63,1.58-3.63,5.67,0,7.38,4.22,13.39,6.91,13.39,1.24,0,2.14-1.24,2.14-4.19,0-2.17-.74-4.84-2.45-5.36l.03-.25,5.89-.03.03.06s-.62,1.02-.62,3.5v3.26c0,2.98.37,4.37.37,4.37h-.09s-1.3-.81-2.23-2.42c-1.49,2.08-3.41,2.98-5.4,2.98-4.12,0-8.37-4.06-8.37-10.23,0-8.59,5.18-12.31,10.02-12.31M627.81.27c-2.81,0-5.43,1.13-7.37,3.17-2.22,2.35-3.4,5.77-3.4,9.89,0,6.78,4.74,10.98,9.12,10.98,2.06,0,3.89-.85,5.34-2.46.9,1.17,1.84,1.76,1.89,1.79l.18.11h1.28l-.25-.94s-.35-1.37-.35-4.18v-3.26c0-.9.09-2.17.53-3.13.12-.27.12-.52,0-.74l-.02-.03-.21-.41h-.46s-5.89.03-5.89.03h-.66s-.08.66-.08.66l-.03.25-.08.62.6.19c1.25.39,1.92,2.68,1.92,4.65,0,2.15-.52,3.44-1.39,3.44-2.06,0-6.16-5.47-6.16-12.64,0-3.13,1.05-4.92,2.88-4.92,2.07,0,4.9,2.42,6.3,5.4l.16.34.37.07.16.03.81.16.09-.82.59-5.49.03-.33-.22-.25c-.91-1.05-3.08-2.18-5.68-2.18h0Z"/>
      <path class="cls-1" d="M649.14,1.48c-.59,1.98-1.24,4.31-1.27,6.6h-.15c-.94-3.41-1.23-5.77-5.14-5.77-.08,0-.15,0-.23,0h-1.55c-.12,3.19-.16,6.17-.16,9.27,0,0,2.42-2.45,3.97-2.45.5,0,.81.09.81.09v5.43l-.19.03c-.47-1.64-1.43-3.16-2.73-3.16-.59,0-1.18.28-1.86.93,0,3.26.03,4.46.12,7.84.03,1.09.19,2.02,1.18,2.02.04,0,.07,0,.11,0,3.1,0,4.96-1.36,5.88-6.61l.15-.03c.03,2.7.28,5.12.81,7.5h-13.74l-.03-.25c1.89-1.49,1.83-5.74,1.83-10.98,0-5.8-.12-8.74-1.83-10.23l.03-.25h13.98M650.14.73h-15.65l-.08.66-.03.25-.05.4.3.26c1.42,1.24,1.57,3.9,1.57,9.67v.49c0,4.66,0,8.68-1.54,9.9l-.33.26.05.42.03.25.08.66h15.33l-.2-.91c-.51-2.29-.76-4.63-.79-7.35v-.9s-.9.18-.9.18l-.15.03-.5.1-.09.51c-.88,5.01-2.55,5.98-5.14,5.98h-.1c-.17,0-.4,0-.44-1.29-.09-3.36-.12-4.55-.12-7.49.54-.46.89-.51,1.11-.51.87,0,1.64,1.31,2.01,2.62l.18.65.66-.11.19-.03.63-.1v-6.62l-.53-.16s-.43-.12-1.02-.12c-1.06,0-2.29.79-3.22,1.52.01-2.59.05-4.73.12-6.84h1.06c3.01,0,3.41,1.47,4.19,4.4.07.27.14.54.22.82l.15.55h1.46v-.74c.04-2.15.64-4.34,1.25-6.4l.29-.96h0Z"/>
      <path class="cls-1" d="M651.46,19.93c1.18,0,1.8.81,1.8,1.92-.06,1.74-1.58,3.29-3.57,3.72l-.4-.31c.68-.4,1.24-1.27,1.24-1.95-.53-.31-.84-.87-.84-1.58,0-1.02.71-1.8,1.77-1.8M651.46,19.18c-1.44,0-2.52,1.1-2.52,2.55,0,.76.28,1.43.77,1.9-.13.35-.43.77-.81.99l-.95.56.88.68.4.31.28.21.34-.07c2.33-.51,4.08-2.37,4.16-4.43,0-1.63-1.02-2.7-2.55-2.7h0Z"/>
    </g>
  </g>
</svg>