<?xml version="1.0" encoding="UTF-8"?>
<svg id="Layer_2" data-name="Layer 2" xmlns="http://www.w3.org/2000/svg" viewBox="0 0 605.29 26.11">
  <defs>
    <style>
      .cls-1 {
        fill: #eb7cab;
      }
    </style>
  </defs>
  <g id="Layer_5" data-name="Layer 5">
    <g>
      <path class="cls-1" d="M21.16,1.21l.03.25c-1.8,2.45-1.49,6.54-.81,11.04.74,5.3,1.02,8.19,2.95,10.17v.25h-7.75l-.03-.25c2.26-2.02,1.21-8.93-.15-18.79l-4.71,19.47-.37.03c-1.74-6.29-3.1-13.49-5.21-19.81l-.78,8.93c-.56,6.45-.59,8.34.81,10.17l-.03.25H.82l-.03-.25c1.46-1.52,2.23-3.57,2.73-10.14.47-5.8,1.12-9.55-1.02-11.07l.03-.25h6.85c.5,3.41,1.33,8,2.95,11.72L15.21,1.21h5.95M21.82.46h-7.2l-.14.57-2.31,9.38c-.83-2.51-1.51-5.58-2.05-9.31l-.09-.64H1.86l-.08.66-.03.25-.06.44.37.26c1.52,1.08,1.27,3.97.89,8.34-.06.66-.12,1.34-.18,2.06-.49,6.47-1.23,8.33-2.52,9.68l-.25.26.04.35.03.25.08.66h5.6l.08-.66.03-.25.04-.3-.19-.24c-1.22-1.59-1.21-3.25-.66-9.65l.44-5.08c.8,2.81,1.5,5.73,2.18,8.57.6,2.51,1.23,5.11,1.89,7.53l.17.6.62-.05.37-.03.54-.04.13-.53,3.78-15.62c.98,7.22,1.53,12.72-.14,14.21l-.29.26.05.39.03.25.08.66h9.16v-1.3l-.21-.22c-1.62-1.67-1.97-4.17-2.59-8.7l-.15-1.06c-.72-4.77-.89-8.37.67-10.49l.18-.24-.04-.3-.03-.25-.08-.66h0Z"/>
      <path class="cls-1" d="M37.99,1.21c-.59,1.98-1.24,4.31-1.27,6.6h-.15c-.94-3.41-1.23-5.77-5.14-5.77-.08,0-.15,0-.23,0h-1.55c-.12,3.19-.15,6.17-.15,9.27,0,0,2.42-2.45,3.97-2.45.5,0,.81.09.81.09v5.43l-.19.03c-.47-1.64-1.43-3.16-2.73-3.16-.59,0-1.18.28-1.86.93,0,3.26.03,4.46.12,7.84.03,1.09.19,2.02,1.18,2.02.04,0,.07,0,.11,0,3.1,0,4.96-1.36,5.88-6.61l.15-.03c.03,2.7.28,5.12.81,7.5h-13.74l-.03-.25c1.89-1.49,1.83-5.74,1.83-10.98,0-5.8-.12-8.74-1.83-10.23l.03-.25h13.98M39,.46h-15.65l-.08.66-.03.25-.05.4.3.26c1.42,1.24,1.57,3.9,1.57,9.67v.49c0,4.66,0,8.68-1.54,9.9l-.33.26.05.42.03.25.08.66h15.33l-.2-.91c-.51-2.3-.76-4.63-.79-7.35v-.9s-.9.18-.9.18l-.15.03-.5.1-.09.51c-.88,5.01-2.55,5.98-5.14,5.98h-.1c-.17,0-.4,0-.44-1.29-.09-3.36-.12-4.54-.12-7.49.54-.46.89-.51,1.11-.51.87,0,1.64,1.31,2.01,2.62l.18.64.66-.11.19-.03.63-.1v-6.62l-.53-.16s-.43-.13-1.02-.13c-1.06,0-2.29.79-3.22,1.52.01-2.59.05-4.73.12-6.84h1.06c3.01,0,3.41,1.47,4.19,4.4.07.26.14.54.22.82l.15.55h1.47v-.74c.04-2.15.64-4.34,1.25-6.4l.29-.96h0Z"/>
      <path class="cls-1" d="M45.47,1.18c5.06,0,9.75,3.08,9.75,10.64s-4.73,11.13-9.76,11.13c-.02,0-.04,0-.07,0l-6.48-.03-.03-.25c1.74-1.12,1.83-5.12,1.83-10.82,0-5.27-.16-9.33-1.83-10.39l.03-.25,6.48-.03s.05,0,.08,0M45.83,22.02c4.28,0,4.96-4.84,4.96-10.2s-1.4-9.83-5.67-9.83h-.56c-.19,5.77-.16,11.32-.09,17.02.03,1.71.28,3.01,1.36,3.01M45.47.43h-.08s-6.48.03-6.48.03h-.66s-.08.66-.08.66l-.03.25-.06.47.4.25c1.48.93,1.48,6.24,1.48,9.75,0,4.54,0,9.24-1.48,10.19l-.4.26.06.47.03.25.08.65h.66s6.48.03,6.48.03h.07c7.26,0,10.51-5.97,10.51-11.88C55.98,3.42,50.55.43,45.47.43h0ZM45.83,21.27c-.47,0-.6-1.23-.61-2.27-.06-5.11-.1-10.57.07-16.26,3.92.13,4.76,4.99,4.76,9.08,0,6.71-1.22,9.45-4.21,9.45h0Z"/>
      <path class="cls-1" d="M63.13,1.21l.03.25c-1.43,1.02-1.83,3.75-1.83,10.11,0,5.15.03,10.02,1.83,11.1l-.03.25h-7.13l-.03-.25c1.77-1.15,1.86-5.49,1.86-9.58v-1.43c0-5.58-.31-9.18-1.86-10.2l.03-.25h7.13M63.79.46h-8.45l-.08.66-.03.25-.06.46.39.26c1.34.88,1.52,5.12,1.52,9.58v1.43c0,2.98,0,7.97-1.52,8.95l-.39.26.06.47.03.25.08.66h8.45l.08-.66.03-.25.06-.48-.42-.25c-1.47-.88-1.47-6.19-1.47-10.46,0-6.13.41-8.71,1.52-9.5l.36-.26-.06-.44-.03-.25-.08-.66h0Z"/>
      <path class="cls-1" d="M72.52,1.06c.68,3.66,1.55,6.67,2.7,10.54,2.05,7.04,3.44,10.76,4.77,11.07l-.03.25h-7.88l-.03-.25c1.18-1.18.78-3.41.22-6.08h-4.81c-.59,2.36-1.4,4.93.28,6.08l-.03.25h-4.43l-.03-.25c1.49-1.4,2.26-1.86,3.91-8.43,1.05-4.12,2.33-9.12,3.19-13.18h2.17M67.62,15.82l4.43-.06-2.29-8.31-2.14,8.37M73.15.31h-3.4l-.13.59c-.89,4.14-2.22,9.35-3.19,13.15-1.51,6.04-2.21,6.69-3.48,7.87l-.21.2-.28.26.05.38.03.25.08.66h5.76l.08-.66.03-.25.06-.45-.38-.26c-1.03-.71-.71-2.4-.12-4.71h3.61c.45,2.24.67,3.99-.14,4.8l-.26.26.05.36.03.25.08.66h9.2l.08-.66.03-.25.08-.67-.66-.15c-1.24-.29-3.49-8.01-4.22-10.55-1.19-4.02-2.02-6.91-2.68-10.47l-.11-.61h0ZM68.59,15.05l1.2-4.69,1.28,4.65-2.48.03h0Z"/>
      <path class="cls-1" d="M82.75,19.66c1.18,0,1.8.81,1.8,1.92-.06,1.74-1.58,3.29-3.57,3.72l-.4-.31c.68-.4,1.24-1.27,1.24-1.95-.53-.31-.84-.87-.84-1.58,0-1.02.71-1.8,1.77-1.8M82.75,18.91c-1.43,0-2.52,1.1-2.52,2.55,0,.76.28,1.43.77,1.9-.13.35-.43.77-.81.99l-.95.56.88.68.4.31.28.21.34-.07c2.33-.51,4.08-2.37,4.15-4.43,0-1.63-1.02-2.7-2.55-2.7h0Z"/>
      <path class="cls-1" d="M94.53,22.67c1.77-1.21,1.86-5.36,1.86-10.48,0-3.13,0-7.41-.22-10.54-4.37,1.83-4.59,5.24-5.08,7.29l-.15.03c-.22-2.39-.62-5.36-1.27-7.75h17.12c-.65,2.39-1.09,5.36-1.27,7.75l-.16-.03c-.46-2.08-.74-5.46-5.05-7.29-.22,3.13-.22,7.41-.22,10.54,0,5.12.09,9.4,1.83,10.48l-.03.25h-7.32l-.03-.25Z"/>
      <path class="cls-1" d="M107.12,22.67c1.49-1.12,1.86-3.35,1.86-11.1,0-5.95-.34-9.12-1.86-10.11l.03-.25h7.25l.03.25c-1.71,1.12-1.83,5.27-1.83,10.11h5.86c0-5.55-.28-9.21-1.86-10.11l.03-.25h7.22l.03.25c-1.24.99-1.8,2.82-1.8,10.11,0,6.64.16,9.92,1.8,11.1l-.03.25h-7.22l-.03-.25c1.74-1.05,1.86-5.61,1.86-10.11h-5.86c-.06,5.46.28,9.08,1.83,10.11l-.03.25h-7.25l-.03-.25Z"/>
      <path class="cls-1" d="M125.16,22.67c1.89-1.49,1.83-5.74,1.83-10.98,0-5.8-.12-8.74-1.83-10.23l.03-.25h13.98c-.59,1.98-1.24,4.31-1.27,6.6h-.15c-.96-3.47-1.24-5.86-5.36-5.77h-1.55c-.12,3.19-.16,6.17-.16,9.27,0,0,2.42-2.45,3.97-2.45.5,0,.81.09.81.09v5.43l-.19.03c-.47-1.64-1.43-3.16-2.73-3.16-.59,0-1.18.28-1.86.93,0,3.26.03,4.46.12,7.84.03,1.09.19,2.02,1.18,2.02,3.16.03,5.05-1.3,5.98-6.6l.15-.03c.03,2.7.28,5.12.81,7.5h-13.74l-.03-.25Z"/>
      <path class="cls-1" d="M171.04,1.21l-.03.25c-1.49,1.08-2.67,3.19-4,8.31-1.05,4.12-2.29,9.08-3.19,13.15h-2.63c-.68-3.69-1.33-6.64-2.33-10.51l-.68-2.67v.03c-1.08,4.12-2.23,9.08-3.1,13.15h-2.85c-.68-3.69-1.46-6.64-2.6-10.51-2.05-7.01-2.48-9.58-4.77-10.95l.03-.25h8.19l.03.25c-1.67,1.67-.68,5.27.03,7.78.74,2.67,1.43,5.3,2.36,7.97l2.17-8.81c-1.05-4.09-1.61-5.86-2.91-6.95l.03-.25h7.29l.03.25c-1.67,1.67-.81,5.27-.09,7.78.74,2.67,1.4,5.3,2.33,7.97l2.05-8.22c1.02-4.06,1.49-6.29-.62-7.53l.03-.25h5.27M171.89.46h-6.78l-.08.66-.03.25-.06.49.43.25c1.56.92,1.32,2.57.27,6.7l-1.41,5.66c-.35-1.19-.68-2.37-.99-3.53-.17-.63-.34-1.27-.52-1.9-.47-1.67-1.58-5.57-.1-7.05l.26-.26-.04-.36-.03-.25-.08-.66h-8.61l-.08.66-.03.25-.05.41.32.26c1.12.93,1.64,2.58,2.62,6.37l-1.49,6.07c-.4-1.34-.77-2.67-1.13-3.97-.13-.49-.27-.97-.4-1.46-.6-2.12-1.61-5.66-.22-7.05l.26-.26-.05-.36-.03-.25-.08-.66h-9.51l-.08.66-.03.25-.06.49.42.25c1.73,1.03,2.3,3.04,3.68,7.89.23.8.48,1.67.75,2.62,1.08,3.65,1.89,6.67,2.59,10.44l.11.61h4.08l.13-.59c.75-3.51,1.58-7.12,2.37-10.29.96,3.76,1.6,6.65,2.27,10.27l.11.61h3.86l.13-.59c.73-3.28,1.77-7.58,3.19-13.12,1.18-4.54,2.26-6.83,3.71-7.89l.26-.19.04-.32.03-.25.11-.84h0Z"/>
      <path class="cls-1" d="M185.12,1.21c-.59,1.98-1.24,4.31-1.27,6.6h-.15c-.94-3.41-1.23-5.77-5.14-5.77-.08,0-.15,0-.23,0h-1.55c-.12,3.19-.16,6.17-.16,9.27,0,0,2.42-2.45,3.97-2.45.5,0,.81.09.81.09v5.43l-.19.03c-.47-1.64-1.43-3.16-2.73-3.16-.59,0-1.18.28-1.86.93,0,3.26.03,4.46.12,7.84.03,1.09.19,2.02,1.18,2.02.04,0,.07,0,.11,0,3.1,0,4.96-1.36,5.88-6.61l.15-.03c.03,2.7.28,5.12.81,7.5h-13.74l-.03-.25c1.89-1.49,1.83-5.74,1.83-10.98,0-5.8-.12-8.74-1.83-10.23l.03-.25h13.98M186.12.46h-15.65l-.08.66-.03.25-.05.4.3.26c1.42,1.24,1.57,3.9,1.57,9.67v.49c0,4.66,0,8.68-1.54,9.9l-.33.26.05.42.03.25.08.66h15.33l-.2-.91c-.51-2.29-.76-4.63-.79-7.35v-.9s-.9.18-.9.18l-.15.03-.5.1-.09.51c-.88,5.01-2.55,5.98-5.14,5.98h-.1c-.17,0-.4,0-.44-1.29-.09-3.36-.12-4.55-.12-7.49.54-.46.89-.51,1.11-.51.87,0,1.64,1.31,2.01,2.62l.18.64.66-.11.19-.03.63-.1v-6.62l-.53-.16s-.43-.12-1.02-.12c-1.06,0-2.29.79-3.22,1.52.01-2.59.05-4.73.12-6.84h1.06c3.01,0,3.41,1.47,4.19,4.4.07.27.14.54.22.82l.15.55h1.46v-.74c.04-2.15.64-4.34,1.25-6.4l.29-.96h0Z"/>
      <path class="cls-1" d="M192.77,1.18c3.16,0,6.36,1.46,6.36,5.02,0,2.26-1.61,4.06-3.44,4.65,2.85.34,5.18,2.6,5.18,6.05,0,4.15-2.73,6.08-7.04,6.08l-7.81-.06-.03-.25c1.92-.96,1.89-6.73,1.83-11.25-.06-4.53.03-8.53-1.83-9.92l.03-.28,6.76-.03M191.5,11.04c2.39-.43,3.57-1.98,3.57-4.46,0-2.22-.98-4.47-3.27-4.47-.05,0-.09,0-.14,0l-.15,8.93M193.02,21.93c1.46,0,3.6-1.61,3.6-5.33,0-1.74-.46-4.15-3.16-4.96-.65.09-1.27.12-1.95.12l.09,8.37c.03.87.31,1.8,1.43,1.8M192.77.43h0l-6.76.03h-.67s-.07.67-.07.67l-.03.28-.05.43.34.26c1.43,1.08,1.48,4.63,1.52,8.39v.94c.06,3.18.15,9.8-1.4,10.57l-.48.24.07.53.03.25.08.65h.66s7.81.07,7.81.07c4.96,0,7.79-2.49,7.79-6.83,0-2.88-1.54-5.24-3.93-6.28,1.34-1.06,2.19-2.69,2.19-4.42,0-2.66-1.86-5.77-7.11-5.77h0ZM192.27,10.06l.12-7.12c1.41.38,1.93,2.12,1.93,3.64,0,1.79-.67,2.94-2.05,3.48h0ZM192.26,12.49c.4-.02.77-.05,1.13-.09,1.67.56,2.48,1.93,2.48,4.2,0,3.13-1.7,4.58-2.85,4.58-.24,0-.64,0-.68-1.07l-.08-7.61h0Z"/>
      <path class="cls-1" d="M215.29,1.18c5.06,0,9.75,3.08,9.75,10.64s-4.73,11.13-9.76,11.13c-.02,0-.04,0-.07,0l-6.48-.03-.03-.25c1.74-1.12,1.83-5.12,1.83-10.82,0-5.27-.16-9.33-1.83-10.39l.03-.25,6.48-.03s.05,0,.08,0M215.65,22.02c4.28,0,4.96-4.84,4.96-10.2s-1.4-9.83-5.67-9.83h-.56c-.19,5.77-.16,11.32-.09,17.02.03,1.71.28,3.01,1.36,3.01M215.29.43h-.08s-6.48.03-6.48.03h-.66s-.08.66-.08.66l-.03.25-.06.47.4.25c1.48.93,1.48,6.24,1.48,9.75,0,4.54,0,9.24-1.48,10.19l-.4.26.06.47.03.25.08.65h.66s6.48.03,6.48.03h.07c5.23,0,10.51-3.67,10.51-11.88S220.37.43,215.29.43h0ZM215.65,21.27c-.47,0-.6-1.23-.61-2.27-.06-5.11-.1-10.56.07-16.26,3.92.13,4.76,4.99,4.76,9.08,0,6.71-1.22,9.45-4.21,9.45h0Z"/>
      <path class="cls-1" d="M239.8,1.21c-.59,1.98-1.24,4.31-1.27,6.6h-.15c-.94-3.41-1.23-5.77-5.14-5.77-.08,0-.15,0-.23,0h-1.55c-.12,3.19-.16,6.17-.16,9.27,0,0,2.42-2.45,3.97-2.45.5,0,.81.09.81.09v5.43l-.19.03c-.47-1.64-1.43-3.16-2.73-3.16-.59,0-1.18.28-1.86.93,0,3.26.03,4.46.12,7.84.03,1.09.19,2.02,1.18,2.02.04,0,.07,0,.11,0,3.1,0,4.96-1.36,5.88-6.61l.15-.03c.03,2.7.28,5.12.81,7.5h-13.74l-.03-.25c1.89-1.49,1.83-5.74,1.83-10.98,0-5.8-.12-8.74-1.83-10.23l.03-.25h13.98M240.8.46h-15.65l-.08.66-.03.25-.05.4.3.26c1.42,1.24,1.57,3.9,1.57,9.67v.49c0,4.66,0,8.68-1.54,9.9l-.33.26.05.42.03.25.08.66h15.33l-.2-.91c-.51-2.29-.76-4.63-.79-7.35v-.9s-.9.18-.9.18l-.15.03-.5.1-.09.51c-.88,5.01-2.55,5.98-5.14,5.98h-.1c-.17,0-.4,0-.44-1.29-.09-3.36-.12-4.55-.12-7.49.54-.46.89-.51,1.11-.51.87,0,1.64,1.31,2.01,2.62l.18.64.66-.11.19-.03.63-.1v-6.62l-.53-.16s-.43-.12-1.02-.12c-1.06,0-2.29.79-3.22,1.52.01-2.59.05-4.73.12-6.84h1.06c3.01,0,3.41,1.47,4.19,4.4.07.27.14.54.22.82l.15.55h1.46v-.74c.04-2.15.64-4.34,1.25-6.4l.29-.96h0Z"/>
      <path class="cls-1" d="M248.04.75c3.81,0,5.83,2.17,5.83,2.17l-2.2,5.4h-.19c-.62-4.81-2.85-6.57-4.74-6.57-1.58,0-2.95,1.21-2.95,2.88,0,4.4,10.36,5.12,10.36,11.94,0,3.63-2.42,6.73-7.38,6.73-4.09,0-6.29-2.51-6.29-2.51l1.52-6.39.19.03c.65,2.67,2.29,7.94,5.83,7.94,1.67,0,3.35-1.18,3.35-3.19,0-4.99-10.48-5.21-10.48-12.25,0-3.6,3.13-6.17,7.16-6.17M248.04,0c-4.51,0-7.91,2.97-7.91,6.92,0,4.25,3.34,6.21,6.28,7.93,2.25,1.32,4.2,2.46,4.2,4.31,0,1.59-1.34,2.44-2.6,2.44-2.87,0-4.43-4.61-5.1-7.37l-.12-.48-.49-.08-.19-.03-.69-.11-.16.68-1.52,6.39-.09.38.26.29c.1.11,2.48,2.77,6.86,2.77,4.05,0,8.13-2.31,8.13-7.48,0-4.21-3.54-6.33-6.39-8.03-2.13-1.27-3.97-2.37-3.97-3.91,0-1.2.96-2.13,2.2-2.13,1.49,0,3.44,1.55,4,5.92l.08.65h1.35l.19-.47,2.2-5.4.18-.44-.33-.35c-.09-.1-2.29-2.41-6.38-2.41h0Z"/>
      <path class="cls-1" d="M262.34,1.21l.03.25c-1.43,1.02-1.83,3.75-1.83,10.11,0,5.15.03,10.02,1.83,11.1l-.03.25h-7.13l-.03-.25c1.77-1.15,1.86-5.49,1.86-9.58v-1.43c0-5.58-.31-9.18-1.86-10.2l.03-.25h7.13M263,.46h-8.45l-.08.66-.03.25-.06.46.39.26c1.34.88,1.52,5.12,1.52,9.58v1.43c0,2.98,0,7.97-1.52,8.95l-.39.26.06.47.03.25.08.66h8.45l.08-.66.03-.25.06-.48-.42-.25c-1.47-.89-1.47-6.19-1.47-10.46,0-6.13.41-8.71,1.52-9.5l.36-.26-.06-.44-.03-.25-.08-.66h0Z"/>
      <path class="cls-1" d="M273.19.75c2.29,0,4.28.96,5.12,1.92l-.59,5.49-.16-.03c-1.52-3.22-4.56-5.83-6.98-5.83-1.95,0-3.63,1.58-3.63,5.67,0,7.38,4.22,13.39,6.91,13.39,1.24,0,2.14-1.24,2.14-4.19,0-2.17-.74-4.84-2.45-5.36l.03-.25,5.89-.03.03.06s-.62,1.02-.62,3.5v3.26c0,2.98.37,4.37.37,4.37h-.09s-1.3-.81-2.23-2.42c-1.49,2.08-3.41,2.98-5.4,2.98-4.12,0-8.37-4.06-8.37-10.23,0-8.59,5.18-12.31,10.02-12.31M273.19,0c-2.81,0-5.43,1.13-7.37,3.17-2.22,2.35-3.4,5.77-3.4,9.89,0,6.78,4.74,10.98,9.12,10.98,2.06,0,3.89-.85,5.34-2.46.9,1.17,1.84,1.76,1.89,1.79l.18.11h1.28l-.25-.94s-.35-1.37-.35-4.18v-3.26c0-.9.09-2.17.53-3.13.12-.27.12-.52,0-.74l-.02-.03-.21-.41h-.46s-5.89.03-5.89.03h-.66s-.08.66-.08.66l-.03.25-.08.62.6.19c1.25.39,1.92,2.68,1.92,4.65,0,2.15-.52,3.44-1.39,3.44-2.06,0-6.16-5.47-6.16-12.64,0-3.13,1.05-4.92,2.88-4.92,2.07,0,4.9,2.42,6.3,5.4l.16.34.37.07.16.03.81.16.09-.82.59-5.49.03-.33-.22-.25c-.91-1.05-3.08-2.18-5.68-2.18h0Z"/>
      <path class="cls-1" d="M297.4,1.21l.03.25c-1.83,1.98-2.14,5.8-2.14,12.59v9.18h-.16l-11.84-17.12v5.43c0,6.45.4,9.33,2.14,11.13l-.03.25h-5.05l-.03-.25c1.8-1.83,2.11-4.68,2.11-11.16,0-6.11-.47-8.96-1.86-10.05l-.03-.25h3.22c1.02.09,2.01.5,3.04,2.02l7.63,11.19c0-6.79.12-10.88-2.17-12.96v-.25h5.15M298.06.46h-6.56v1.33l.25.22c1.77,1.61,1.92,4.8,1.93,9.97l-6.26-9.18c-1-1.48-2.11-2.21-3.59-2.34h-.03s-.03,0-.03,0h-4.07l.1.84.03.25.04.31.25.19c1.12.87,1.57,3.61,1.57,9.45,0,6.14-.26,8.98-1.89,10.64l-.25.26.05.36.03.25.08.66h6.38l.08-.66.03-.25.04-.35-.25-.26c-1.48-1.53-1.93-4.01-1.93-10.61v-3.02l10.48,15.14.22.32h1.3v-9.93c0-6.62.3-10.3,1.94-12.08l.24-.25-.04-.34-.03-.25-.08-.66h0Z"/>
      <path class="cls-1" d="M328.24,1.68l.03.25c-1.8,2.45-1.49,6.54-.81,11.04.74,5.3,1.02,8.19,2.95,10.17v.25h-7.75l-.03-.25c2.26-2.02,1.21-8.93-.15-18.79l-4.71,19.47-.37.03c-1.74-6.29-3.1-13.49-5.21-19.81l-.78,8.93c-.56,6.45-.59,8.34.81,10.17l-.03.25h-4.28l-.03-.25c1.46-1.52,2.23-3.57,2.73-10.14.47-5.8,1.12-9.55-1.02-11.07l.03-.25h6.85c.5,3.41,1.33,8,2.95,11.72l2.88-11.72h5.95M328.9.93h-7.2l-.14.57-2.31,9.38c-.83-2.51-1.51-5.58-2.05-9.31l-.09-.64h-8.16l-.08.66-.03.25-.06.44.37.26c1.52,1.08,1.27,3.97.89,8.34-.06.66-.12,1.34-.18,2.06-.49,6.47-1.23,8.33-2.52,9.68l-.25.26.04.35.03.25.08.66h5.6l.08-.66.03-.25.04-.3-.19-.24c-1.22-1.59-1.21-3.25-.66-9.65l.44-5.08c.8,2.81,1.5,5.73,2.18,8.57.6,2.51,1.23,5.11,1.89,7.53l.17.6.62-.05.37-.03.54-.04.13-.53,3.78-15.62c.98,7.22,1.53,12.72-.14,14.21l-.29.26.05.39.03.25.08.66h9.16v-1.3l-.21-.22c-1.62-1.67-1.97-4.17-2.59-8.7l-.15-1.06c-.72-4.77-.89-8.37.67-10.49l.18-.24-.04-.3-.03-.25-.08-.66h0Z"/>
      <path class="cls-1" d="M345.07,1.68c-.59,1.98-1.24,4.31-1.27,6.6h-.15c-.94-3.41-1.23-5.77-5.14-5.77-.08,0-.15,0-.23,0h-1.55c-.12,3.19-.15,6.17-.15,9.27,0,0,2.42-2.45,3.97-2.45.5,0,.81.09.81.09v5.43l-.19.03c-.47-1.64-1.43-3.16-2.73-3.16-.59,0-1.18.28-1.86.93,0,3.26.03,4.46.12,7.84.03,1.09.19,2.02,1.18,2.02.04,0,.07,0,.11,0,3.1,0,4.96-1.36,5.88-6.61l.15-.03c.03,2.7.28,5.12.81,7.5h-13.74l-.03-.25c1.89-1.49,1.83-5.74,1.83-10.98,0-5.8-.12-8.74-1.83-10.23l.03-.25h13.98M346.07.93h-15.65l-.08.66-.03.25-.05.4.3.26c1.42,1.24,1.57,3.9,1.57,9.67v.49c0,4.66,0,8.68-1.54,9.9l-.33.26.05.42.03.25.08.66h15.33l-.2-.91c-.51-2.3-.76-4.63-.79-7.35v-.9s-.9.18-.9.18l-.15.03-.5.1-.09.51c-.88,5.01-2.55,5.98-5.14,5.98h-.1c-.17,0-.4,0-.44-1.29-.09-3.36-.12-4.54-.12-7.49.54-.46.89-.51,1.11-.51.87,0,1.64,1.31,2.01,2.62l.18.64.66-.11.19-.03.63-.1v-6.62l-.53-.16s-.43-.13-1.02-.13c-1.06,0-2.29.79-3.22,1.52.01-2.59.05-4.73.12-6.84h1.06c3.01,0,3.41,1.47,4.19,4.4.07.26.14.54.22.82l.15.55h1.47v-.74c.04-2.15.64-4.34,1.25-6.4l.29-.96h0Z"/>
      <path class="cls-1" d="M352.55,1.65c5.06,0,9.75,3.08,9.75,10.64s-4.73,11.13-9.76,11.13c-.02,0-.04,0-.07,0l-6.48-.03-.03-.25c1.74-1.12,1.83-5.12,1.83-10.82,0-5.27-.16-9.33-1.83-10.39l.03-.25,6.48-.03s.05,0,.08,0M352.91,22.49c4.28,0,4.96-4.84,4.96-10.2s-1.4-9.83-5.67-9.83h-.56c-.19,5.77-.16,11.32-.09,17.02.03,1.71.28,3.01,1.36,3.01M352.55.9h-.08s-6.48.03-6.48.03h-.66s-.08.66-.08.66l-.03.25-.06.47.4.25c1.48.93,1.48,6.24,1.48,9.75,0,4.54,0,9.24-1.48,10.19l-.4.26.06.47.03.25.08.65h.66s6.48.03,6.48.03h.07c7.26,0,10.51-5.97,10.51-11.88,0-8.39-5.43-11.39-10.5-11.39h0ZM352.91,21.74c-.47,0-.6-1.23-.61-2.27-.06-5.11-.1-10.57.07-16.26,3.92.13,4.76,4.99,4.76,9.08,0,6.71-1.22,9.45-4.21,9.45h0Z"/>
      <path class="cls-1" d="M370.21,1.68l.03.25c-1.43,1.02-1.83,3.75-1.83,10.11,0,5.15.03,10.02,1.83,11.1l-.03.25h-7.13l-.03-.25c1.77-1.15,1.86-5.49,1.86-9.58v-1.43c0-5.58-.31-9.18-1.86-10.2l.03-.25h7.13M370.87.93h-8.45l-.08.66-.03.25-.06.46.39.26c1.34.88,1.52,5.12,1.52,9.58v1.43c0,2.98,0,7.97-1.52,8.95l-.39.26.06.47.03.25.08.66h8.45l.08-.66.03-.25.06-.48-.42-.25c-1.47-.88-1.47-6.19-1.47-10.46,0-6.13.41-8.71,1.52-9.5l.36-.26-.06-.44-.03-.25-.08-.66h0Z"/>
      <path class="cls-1" d="M379.6,1.53c.68,3.66,1.55,6.67,2.7,10.54,2.05,7.04,3.44,10.76,4.77,11.07l-.03.25h-7.88l-.03-.25c1.18-1.18.78-3.41.22-6.08h-4.81c-.59,2.36-1.4,4.93.28,6.08l-.03.25h-4.43l-.03-.25c1.49-1.4,2.26-1.86,3.91-8.43,1.05-4.12,2.33-9.12,3.19-13.18h2.17M374.7,16.29l4.43-.06-2.29-8.31-2.14,8.37M380.23.78h-3.4l-.13.59c-.89,4.14-2.22,9.35-3.19,13.15-1.51,6.04-2.21,6.69-3.48,7.87l-.21.2-.28.26.05.38.03.25.08.66h5.76l.08-.66.03-.25.06-.45-.38-.26c-1.03-.71-.71-2.4-.12-4.71h3.61c.45,2.24.67,3.99-.14,4.8l-.26.26.05.36.03.25.08.66h9.2l.08-.66.03-.25.08-.67-.66-.15c-1.24-.29-3.49-8.01-4.22-10.55-1.19-4.02-2.02-6.91-2.68-10.47l-.11-.61h0ZM375.67,15.52l1.2-4.69,1.28,4.65-2.48.03h0Z"/>
      <path class="cls-1" d="M401.61,23.14c1.77-1.21,1.86-5.36,1.86-10.48,0-3.13,0-7.41-.22-10.54-4.37,1.83-4.59,5.24-5.08,7.29l-.15.03c-.22-2.39-.62-5.36-1.27-7.75h17.12c-.65,2.39-1.09,5.36-1.27,7.75l-.16-.03c-.46-2.08-.74-5.46-5.05-7.29-.22,3.13-.22,7.41-.22,10.54,0,5.12.09,9.4,1.83,10.48l-.03.25h-7.32l-.03-.25Z"/>
      <path class="cls-1" d="M414.2,23.14c1.49-1.12,1.86-3.35,1.86-11.1,0-5.95-.34-9.12-1.86-10.11l.03-.25h7.25l.03.25c-1.71,1.12-1.83,5.27-1.83,10.11h5.86c0-5.55-.28-9.21-1.86-10.11l.03-.25h7.22l.03.25c-1.24.99-1.8,2.82-1.8,10.11,0,6.64.16,9.92,1.8,11.1l-.03.25h-7.22l-.03-.25c1.74-1.05,1.86-5.61,1.86-10.11h-5.86c-.06,5.46.28,9.08,1.83,10.11l-.03.25h-7.25l-.03-.25Z"/>
      <path class="cls-1" d="M432.24,23.14c1.89-1.49,1.83-5.74,1.83-10.98,0-5.8-.12-8.74-1.83-10.23l.03-.25h13.98c-.59,1.98-1.24,4.31-1.27,6.6h-.15c-.96-3.47-1.24-5.86-5.36-5.77h-1.55c-.12,3.19-.16,6.17-.16,9.27,0,0,2.42-2.45,3.97-2.45.5,0,.81.09.81.09v5.43l-.19.03c-.47-1.64-1.43-3.16-2.73-3.16-.59,0-1.18.28-1.86.93,0,3.26.03,4.46.12,7.84.03,1.09.19,2.02,1.18,2.02,3.16.03,5.05-1.3,5.98-6.6l.15-.03c.03,2.7.28,5.12.81,7.5h-13.74l-.03-.25Z"/>
      <path class="cls-1" d="M478.12,1.68l-.03.25c-1.49,1.08-2.67,3.19-4,8.31-1.05,4.12-2.29,9.08-3.19,13.15h-2.63c-.68-3.69-1.33-6.64-2.33-10.51l-.68-2.67v.03c-1.08,4.12-2.23,9.08-3.1,13.15h-2.85c-.68-3.69-1.46-6.64-2.6-10.51-2.05-7.01-2.48-9.58-4.77-10.95l.03-.25h8.19l.03.25c-1.67,1.67-.68,5.27.03,7.78.74,2.67,1.43,5.3,2.36,7.97l2.17-8.81c-1.05-4.09-1.61-5.86-2.91-6.95l.03-.25h7.29l.03.25c-1.67,1.67-.81,5.27-.09,7.78.74,2.67,1.4,5.3,2.33,7.97l2.05-8.22c1.02-4.06,1.49-6.29-.62-7.53l.03-.25h5.27M478.97.93h-6.78l-.08.66-.03.25-.06.49.43.25c1.56.92,1.32,2.57.27,6.7l-1.41,5.66c-.35-1.19-.68-2.37-.99-3.53-.17-.63-.34-1.27-.52-1.9-.47-1.67-1.58-5.57-.1-7.05l.26-.26-.04-.36-.03-.25-.08-.66h-8.61l-.08.66-.03.25-.05.41.32.26c1.12.93,1.64,2.58,2.62,6.37l-1.49,6.07c-.4-1.34-.77-2.67-1.13-3.97-.13-.49-.27-.97-.4-1.46-.6-2.12-1.61-5.66-.22-7.05l.26-.26-.05-.36-.03-.25-.08-.66h-9.51l-.08.66-.03.25-.06.49.42.25c1.73,1.03,2.3,3.04,3.68,7.89.23.8.48,1.67.75,2.62,1.08,3.65,1.89,6.67,2.59,10.44l.11.61h4.08l.13-.59c.75-3.51,1.58-7.12,2.37-10.29.96,3.76,1.6,6.65,2.27,10.27l.11.61h3.86l.13-.59c.73-3.28,1.77-7.58,3.19-13.12,1.18-4.54,2.26-6.83,3.71-7.89l.26-.19.04-.32.03-.25.11-.84h0Z"/>
      <path class="cls-1" d="M492.19,1.68c-.59,1.98-1.24,4.31-1.27,6.6h-.15c-.94-3.41-1.23-5.77-5.14-5.77-.08,0-.15,0-.23,0h-1.55c-.12,3.19-.16,6.17-.16,9.27,0,0,2.42-2.45,3.97-2.45.5,0,.81.09.81.09v5.43l-.19.03c-.47-1.64-1.43-3.16-2.73-3.16-.59,0-1.18.28-1.86.93,0,3.26.03,4.46.12,7.84.03,1.09.19,2.02,1.18,2.02.04,0,.07,0,.11,0,3.1,0,4.96-1.36,5.88-6.61l.15-.03c.03,2.7.28,5.12.81,7.5h-13.74l-.03-.25c1.89-1.49,1.83-5.74,1.83-10.98,0-5.8-.12-8.74-1.83-10.23l.03-.25h13.98M493.2.93h-15.65l-.08.66-.03.25-.05.4.3.26c1.42,1.24,1.57,3.9,1.57,9.67v.49c0,4.66,0,8.68-1.54,9.9l-.33.26.05.42.03.25.08.66h15.33l-.2-.91c-.51-2.29-.76-4.63-.79-7.35v-.9s-.9.18-.9.18l-.15.03-.5.1-.09.51c-.88,5.01-2.55,5.98-5.14,5.98h-.1c-.17,0-.4,0-.44-1.29-.09-3.36-.12-4.55-.12-7.49.54-.46.89-.51,1.11-.51.87,0,1.64,1.31,2.01,2.62l.18.64.66-.11.19-.03.63-.1v-6.62l-.53-.16s-.43-.12-1.02-.12c-1.06,0-2.29.79-3.22,1.52.01-2.59.05-4.73.12-6.84h1.06c3.01,0,3.41,1.47,4.19,4.4.07.27.14.54.22.82l.15.55h1.46v-.74c.04-2.15.64-4.34,1.25-6.4l.29-.96h0Z"/>
      <path class="cls-1" d="M499.85,1.65c3.16,0,6.36,1.46,6.36,5.02,0,2.26-1.61,4.06-3.44,4.65,2.85.34,5.18,2.6,5.18,6.05,0,4.15-2.73,6.08-7.04,6.08l-7.81-.06-.03-.25c1.92-.96,1.89-6.73,1.83-11.25-.06-4.53.03-8.53-1.83-9.92l.03-.28,6.76-.03M498.58,11.51c2.39-.43,3.57-1.98,3.57-4.46,0-2.22-.98-4.47-3.27-4.47-.05,0-.09,0-.14,0l-.15,8.93M500.1,22.4c1.46,0,3.6-1.61,3.6-5.33,0-1.74-.46-4.15-3.16-4.96-.65.09-1.27.12-1.95.12l.09,8.37c.03.87.31,1.8,1.43,1.8M499.85.9h0l-6.76.03h-.67s-.07.67-.07.67l-.03.28-.05.43.34.26c1.44,1.08,1.48,4.63,1.52,8.39v.94c.06,3.18.15,9.8-1.4,10.57l-.48.24.07.53.03.25.08.65h.66s7.81.07,7.81.07c4.96,0,7.79-2.49,7.79-6.83,0-2.88-1.54-5.24-3.93-6.28,1.34-1.06,2.19-2.69,2.19-4.42,0-2.66-1.86-5.77-7.11-5.77h0ZM499.35,10.52l.12-7.12c1.41.38,1.93,2.12,1.93,3.64,0,1.79-.67,2.94-2.05,3.48h0ZM499.34,12.96c.4-.02.77-.05,1.13-.09,1.67.56,2.48,1.93,2.48,4.2,0,3.13-1.7,4.58-2.85,4.58-.24,0-.64,0-.68-1.07l-.08-7.61h0Z"/>
      <path class="cls-1" d="M522.37,1.65c5.06,0,9.75,3.08,9.75,10.64s-4.73,11.13-9.76,11.13c-.02,0-.04,0-.07,0l-6.48-.03-.03-.25c1.74-1.12,1.83-5.12,1.83-10.82,0-5.27-.16-9.33-1.83-10.39l.03-.25,6.48-.03s.05,0,.08,0M522.73,22.49c4.28,0,4.96-4.84,4.96-10.2s-1.4-9.83-5.67-9.83h-.56c-.19,5.77-.16,11.32-.09,17.02.03,1.71.28,3.01,1.36,3.01M522.37.9h-.08s-6.48.03-6.48.03h-.66s-.08.66-.08.66l-.03.25-.06.47.4.25c1.48.93,1.48,6.24,1.48,9.75,0,4.54,0,9.24-1.48,10.19l-.4.26.06.47.03.25.08.65h.66s6.48.03,6.48.03h.07c5.23,0,10.51-3.67,10.51-11.88s-5.43-11.39-10.5-11.39h0ZM522.73,21.74c-.47,0-.6-1.23-.61-2.27-.06-5.11-.1-10.56.07-16.26,3.92.13,4.76,4.99,4.76,9.08,0,6.71-1.22,9.45-4.21,9.45h0Z"/>
      <path class="cls-1" d="M546.88,1.68c-.59,1.98-1.24,4.31-1.27,6.6h-.15c-.94-3.41-1.23-5.77-5.14-5.77-.08,0-.15,0-.23,0h-1.55c-.12,3.19-.16,6.17-.16,9.27,0,0,2.42-2.45,3.97-2.45.5,0,.81.09.81.09v5.43l-.19.03c-.47-1.64-1.43-3.16-2.73-3.16-.59,0-1.18.28-1.86.93,0,3.26.03,4.46.12,7.84.03,1.09.19,2.02,1.18,2.02.04,0,.07,0,.11,0,3.1,0,4.96-1.36,5.88-6.61l.15-.03c.03,2.7.28,5.12.81,7.5h-13.74l-.03-.25c1.89-1.49,1.83-5.74,1.83-10.98,0-5.8-.12-8.74-1.83-10.23l.03-.25h13.98M547.88.93h-15.65l-.08.66-.03.25-.05.4.3.26c1.42,1.24,1.57,3.9,1.57,9.67v.49c0,4.66,0,8.68-1.54,9.9l-.33.26.05.42.03.25.08.66h15.33l-.2-.91c-.51-2.29-.76-4.63-.79-7.35v-.9s-.9.18-.9.18l-.15.03-.5.1-.09.51c-.88,5.01-2.55,5.98-5.14,5.98h-.1c-.17,0-.4,0-.44-1.29-.09-3.36-.12-4.55-.12-7.49.54-.46.89-.51,1.11-.51.87,0,1.64,1.31,2.01,2.62l.18.64.66-.11.19-.03.63-.1v-6.62l-.53-.16s-.43-.12-1.02-.12c-1.06,0-2.29.79-3.22,1.52.01-2.59.05-4.73.12-6.84h1.06c3.01,0,3.41,1.47,4.19,4.4.07.27.14.54.22.82l.15.55h1.46v-.74c.04-2.15.64-4.34,1.25-6.4l.29-.96h0Z"/>
      <path class="cls-1" d="M555.12,1.22c3.81,0,5.83,2.17,5.83,2.17l-2.2,5.4h-.19c-.62-4.81-2.85-6.57-4.74-6.57-1.58,0-2.95,1.21-2.95,2.88,0,4.4,10.36,5.12,10.36,11.94,0,3.63-2.42,6.73-7.38,6.73-4.09,0-6.29-2.51-6.29-2.51l1.52-6.39.19.03c.65,2.67,2.29,7.94,5.83,7.94,1.67,0,3.35-1.18,3.35-3.19,0-4.99-10.48-5.21-10.48-12.25,0-3.6,3.13-6.17,7.16-6.17M555.12.47c-4.51,0-7.91,2.97-7.91,6.92,0,4.25,3.34,6.21,6.28,7.93,2.25,1.32,4.2,2.46,4.2,4.31,0,1.59-1.34,2.44-2.6,2.44-2.87,0-4.43-4.61-5.1-7.37l-.12-.48-.49-.08-.19-.03-.69-.11-.16.68-1.52,6.39-.09.38.26.29c.1.11,2.48,2.77,6.86,2.77,4.05,0,8.13-2.31,8.13-7.48,0-4.21-3.54-6.33-6.39-8.03-2.13-1.27-3.97-2.37-3.97-3.91,0-1.2.96-2.13,2.2-2.13,1.49,0,3.44,1.55,4,5.92l.08.65h1.35l.19-.47,2.2-5.4.18-.44-.33-.35c-.09-.1-2.29-2.41-6.38-2.41h0Z"/>
      <path class="cls-1" d="M569.41,1.68l.03.25c-1.43,1.02-1.83,3.75-1.83,10.11,0,5.15.03,10.02,1.83,11.1l-.03.25h-7.13l-.03-.25c1.77-1.15,1.86-5.49,1.86-9.58v-1.43c0-5.58-.31-9.18-1.86-10.2l.03-.25h7.13M570.08.93h-8.45l-.08.66-.03.25-.06.46.39.26c1.34.88,1.52,5.12,1.52,9.58v1.43c0,2.98,0,7.97-1.52,8.95l-.39.26.06.47.03.25.08.66h8.45l.08-.66.03-.25.06-.48-.42-.25c-1.47-.89-1.47-6.19-1.47-10.46,0-6.13.41-8.71,1.52-9.5l.36-.26-.06-.44-.03-.25-.08-.66h0Z"/>
      <path class="cls-1" d="M580.26,1.22c2.29,0,4.28.96,5.12,1.92l-.59,5.49-.16-.03c-1.52-3.22-4.56-5.83-6.98-5.83-1.95,0-3.63,1.58-3.63,5.67,0,7.38,4.22,13.39,6.91,13.39,1.24,0,2.14-1.24,2.14-4.19,0-2.17-.74-4.84-2.45-5.36l.03-.25,5.89-.03.03.06s-.62,1.02-.62,3.5v3.26c0,2.98.37,4.37.37,4.37h-.09s-1.3-.81-2.23-2.42c-1.49,2.08-3.41,2.98-5.4,2.98-4.12,0-8.37-4.06-8.37-10.23,0-8.59,5.18-12.31,10.02-12.31M580.26.47c-2.81,0-5.43,1.13-7.37,3.17-2.22,2.35-3.4,5.77-3.4,9.89,0,6.78,4.74,10.98,9.12,10.98,2.06,0,3.89-.85,5.34-2.46.9,1.17,1.84,1.76,1.89,1.79l.18.11h1.28l-.25-.94s-.35-1.37-.35-4.18v-3.26c0-.9.09-2.17.53-3.13.12-.27.12-.52,0-.74l-.02-.03-.21-.41h-.46s-5.89.03-5.89.03h-.66s-.08.66-.08.66l-.03.25-.08.62.6.19c1.25.39,1.92,2.68,1.92,4.65,0,2.15-.52,3.44-1.39,3.44-2.06,0-6.16-5.47-6.16-12.64,0-3.13,1.05-4.92,2.88-4.92,2.07,0,4.9,2.42,6.3,5.4l.16.34.37.07.16.03.81.16.09-.82.59-5.49.03-.33-.22-.25c-.91-1.05-3.08-2.18-5.68-2.18h0Z"/>
      <path class="cls-1" d="M604.48,1.68l.03.25c-1.83,1.98-2.14,5.8-2.14,12.59v9.18h-.16l-11.84-17.12v5.43c0,6.45.4,9.33,2.14,11.13l-.03.25h-5.05l-.03-.25c1.8-1.83,2.11-4.68,2.11-11.16,0-6.11-.47-8.96-1.86-10.05l-.03-.25h3.22c1.02.09,2.01.5,3.04,2.02l7.63,11.19c0-6.79.12-10.88-2.17-12.96v-.25h5.15M605.14.93h-6.56v1.33l.25.22c1.77,1.61,1.92,4.8,1.93,9.97l-6.26-9.18c-1-1.48-2.11-2.21-3.59-2.34h-.03s-.03,0-.03,0h-4.07l.1.84.03.25.04.31.25.19c1.12.87,1.57,3.61,1.57,9.45,0,6.14-.26,8.98-1.89,10.64l-.25.26.05.36.03.25.08.66h6.38l.08-.66.03-.25.04-.35-.25-.26c-1.48-1.53-1.93-4.01-1.93-10.61v-3.02l10.48,15.14.22.32h1.3v-9.93c0-6.62.3-10.3,1.94-12.08l.24-.25-.04-.34-.03-.25-.08-.66h0Z"/>
      <path class="cls-1" d="M299.29,19.66c1.18,0,1.8.81,1.8,1.92-.06,1.74-1.58,3.29-3.57,3.72l-.4-.31c.68-.4,1.24-1.27,1.24-1.95-.53-.31-.84-.87-.84-1.58,0-1.02.71-1.8,1.77-1.8M299.29,18.91c-1.44,0-2.52,1.1-2.52,2.55,0,.76.28,1.43.77,1.9-.13.35-.43.77-.81.99l-.95.56.88.68.4.31.28.21.34-.07c2.33-.51,4.08-2.37,4.16-4.43,0-1.63-1.02-2.7-2.55-2.7h0Z"/>
    </g>
  </g>
</svg>