<?xml version="1.0" encoding="UTF-8"?>
<svg id="Layer_2" data-name="Layer 2" xmlns="http://www.w3.org/2000/svg" viewBox="0 0 303.86 44.15">
  <defs>
    <style>
      .cls-1 {
        fill: #f1f2f2;
      }
    </style>
  </defs>
  <g id="Layer_1-2" data-name="Layer 1">
    <g>
      <path class="cls-1" d="M250.89,19.71c0-1.31-.34-1.94-1.27-1.94-1.27,0-2.35,2.32-3.14,5.27h3.81c.37-1.35.6-2.62.6-3.33Z"/>
      <path class="cls-1" d="M40.3,17.91c-1.23,0-1.94,2.02-2.99,6.09-.56,2.17-.79,3.59-.79,4.41v.07c0,1.23.34,1.61,1.16,1.61,1.23,0,1.94-2.02,2.99-6.09.56-2.17.79-3.59.79-4.41v-.07c0-1.23-.34-1.61-1.16-1.61Z"/>
      <path class="cls-1" d="M152.38,17.91c-1.23,0-1.94,2.02-2.99,6.09-.56,2.17-.79,3.59-.79,4.41v.07c0,1.23.34,1.61,1.16,1.61,1.23,0,1.94-2.02,2.99-6.09.56-2.17.79-3.59.79-4.41v-.07c0-1.23-.34-1.61-1.16-1.61Z"/>
      <path class="cls-1" d="M110.51,17.91c-1.23,0-1.94,2.02-2.99,6.09-.56,2.17-.79,3.59-.79,4.41v.07c0,1.23.34,1.61,1.16,1.61,1.23,0,1.94-2.02,2.99-6.09.56-2.17.79-3.59.79-4.41v-.07c0-1.23-.34-1.61-1.16-1.61Z"/>
      <path class="cls-1" d="M207.74,18.1c-2.09,0-3.89,6.32-3.89,9.27,0,1.53.34,1.94,1.05,1.94,2.09,0,3.89-6.32,3.89-9.27,0-1.53-.34-1.94-1.05-1.94Z"/>
      <path class="cls-1" d="M19.29,12.83h-.75l-1.5,5.98h1.65c2.32,0,3.85-1.42,3.85-3.51,0-1.83-1.08-2.47-3.25-2.47Z"/>
      <path class="cls-1" d="M10.98,0L0,44.15h292.88L303.86,0H10.98ZM135.78,6.85h8l-1.27,5.12h-8l1.27-5.12ZM18.54,24.57h-2.58l-2.39,9.57H5.49L12.22,7.22h8.86c6.24,0,9.38,2.54,9.38,7.25,0,6.24-4.64,10.09-11.93,10.09ZM37.23,34.51c-5.2,0-8.04-2.5-8.04-7.33v-.07c0-1.01.26-2.58.6-3.96,1.61-6.36,5.01-9.65,10.95-9.65,5.2,0,8.04,2.5,8.04,7.33v.07c0,1.01-.26,2.58-.6,3.96-1.61,6.36-5.01,9.65-10.95,9.65ZM58.47,23.3l-2.69,10.84h-7.63l4.9-19.66,7.85-.9-1.91,7.59h.19c4.15-5.83,6.24-7.48,8.9-7.63l-1.94,7.66c-2.8.22-4.97.79-7.66,2.09ZM78.47,28.64c.97,0,1.83-.15,3.48-.71l-1.35,5.5c-2.28.82-4,1.08-6.36,1.08-3.63,0-5.46-1.61-5.46-4.49,0-.64.11-1.61.3-2.39l2.17-8.67h-3.29l1.23-5.01h3.29l1.53-6.13,7.7-.9-1.76,7.03h5.01l-1.23,5.01h-5.01l-1.79,7.18c-.07.34-.19.82-.19,1.2,0,.93.67,1.31,1.72,1.31ZM91.93,34.14h-7.48l3.78-15.18h-3.33l1.23-5.01h3.33l.45-1.68c1.27-4.79,3.66-6.5,9.01-6.5,2.43,0,3.74.19,5.42.64l-1.2,4.9c-.9-.3-1.68-.49-2.92-.49-1.68,0-2.65.64-3.1,2.39l-.19.75h4.6l-1.23,5.01h-4.6l-3.78,15.18ZM107.44,34.51c-5.2,0-8.04-2.5-8.04-7.33v-.07c0-1.01.26-2.58.6-3.96,1.61-6.36,5.01-9.65,10.95-9.65,5.2,0,8.04,2.5,8.04,7.33v.07c0,1.01-.26,2.58-.6,3.96-1.61,6.36-5.01,9.65-10.95,9.65ZM118.47,34.14l6.8-27.29,7.81-.9-6.99,28.19h-7.63ZM129.16,34.14l5.05-20.26h7.63l-5.05,20.26h-7.63ZM160.86,20.9c0,1.01-.26,2.58-.6,3.96-1.61,6.36-5.01,9.65-10.95,9.65-5.2,0-8.04-2.5-8.04-7.33v-.07c0-1.01.26-2.58.6-3.96,1.61-6.36,5.01-9.65,10.95-9.65,5.2,0,8.04,2.5,8.04,7.33v.07ZM195.74,16.72l-8,1.38c.52-3.78-.11-5.27-1.98-5.27s-2.88,2.09-4.15,6.73c-.82,2.95-1.08,5.01-1.08,6.28v.15c0,1.57.82,2.54,2.17,2.54,1.42,0,2.88-1.05,4-4.94h-3.14l.71-2.8h11.1l-3.36,13.46h-2.77l-.19-3.78h-.19c-1.91,2.69-4.34,4.11-7.55,4.11-5.38,0-8.86-3.14-8.86-8.9v-.19c0-1.27.26-3.81.6-5.31,2.13-9.53,6.13-13.42,13.42-13.42s9.91,4.04,9.27,9.94ZM205.46,34.44l.97-3.85h-.15c-2.36,2.62-4,3.81-6.02,3.81-2.5,0-4-1.87-4-5.16v-.07c0-7.48,4-15.55,8.6-15.55,2.17,0,3.22.82,4.82,3.22h.15l.82-3.25,7.4.9-4.75,19.07-7.85.9ZM216.16,34.14l6.8-27.29,7.81-.9-6.99,28.19h-7.63ZM226.85,34.14l6.8-27.29,7.81-.9-6.99,28.19h-7.63ZM249.13,29.31c1.27,0,3.36-.37,5.72-1.05l.45,4.9c-2.95.86-4.82,1.23-7.93,1.23-5.83,0-8.41-2.39-8.41-7.22v-.07c0-.97.26-2.58.6-3.96,1.61-6.36,5.12-9.65,10.54-9.65,5.08,0,7.44,2.43,7.44,6.73,0,1.65-.34,3.36-.97,5.61h-10.65c0,.34-.04.6-.04.82v.07c0,1.94,1.16,2.58,3.25,2.58ZM264.46,34.14h-7.63l4.9-19.66,7.85-.9-1.91,7.59h.19c4.15-5.83,6.24-7.48,8.9-7.63l-1.94,7.66c-2.8.22-4.97.79-7.66,2.09l-2.69,10.84ZM285.84,36.12c-2.28,4-4.56,5.16-8.6,5.16-2.54,0-4.22-.37-5.91-1.08l1.16-4.67h1.31c.52,1.2,1.23,1.94,2.62,1.94.97,0,1.76-.37,2.35-1.27l.22-.34-1.79-21.98h7.59l-.3,13.05,6.21-13.05h7.66l-12.52,22.24Z"/>
    </g>
  </g>
</svg>